<svg width="48" height="48" viewBox="0 0 48 48" fill="none" xmlns="http://www.w3.org/2000/svg">
<path d="M33.7076 22.0663C33.6533 20.9664 33.5195 19.8578 32.8333 18.9701C32.6201 17.8636 31.9613 16.7646 31.3554 15.9113C28.9285 12.4935 26.1474 11.8149 23.0082 10.9024C22.4509 10.582 21.8171 10.4258 21.2361 10.1458C20.6962 9.88551 20.1173 9.56996 19.5104 9.57458L19.5086 9.57369C18.0567 8.77511 18.906 9.05227 16.6921 8.34116C16.3561 8.14727 16.0172 7.95839 15.6756 7.77458C15.5417 7.69351 15.3902 7.85067 15.49 7.97831C16.1028 8.76142 15.9732 8.47556 16.5205 10.2889C16.8144 11.2628 16.7545 12.3721 16.7909 13.3822C16.8256 14.3422 16.888 15.3038 16.8916 16.264C16.8933 16.7348 16.6878 19.443 17.3451 19.7733C17.2601 22.9596 18.0349 24.8169 19.9442 26.7774C21.2837 28.1525 22.7015 28.7173 24.5321 29.1826C27.4416 29.9218 27.8107 29.6343 29.2667 29.7904C29.6197 29.8583 29.9822 29.8498 30.349 29.8187L30.3294 29.7627C32.4809 29.6028 33.25 28.2112 33.5918 26.1378C33.8123 24.8016 33.7741 23.4137 33.7076 22.0663Z" fill="#82EE8D"/>
<path d="M33.8014 21.7362C33.6365 20.2681 33.1117 18.9131 32.6352 17.5252C32.4265 16.9172 32.2057 16.2937 31.8402 15.7589C31.4421 15.1767 30.8354 14.7426 30.2882 14.3074C29.2836 13.5081 28.3387 12.6875 27.1563 12.1577C25.9492 11.6167 24.6523 11.2228 23.4048 10.7835C20.8517 9.88444 18.1581 9.38702 15.8613 7.87751C15.7335 7.79359 15.565 7.93368 15.6356 8.07395L15.7518 8.30506C15.7968 8.39466 15.8852 8.39751 15.9465 8.35626C15.9452 8.37384 15.9472 8.39151 15.9524 8.40835C16.3492 9.71786 16.5381 11.026 16.7038 12.3815C16.8816 13.838 17.1003 15.3353 17.0773 16.8044C17.034 19.6052 16.8731 22.4112 18.2029 24.9806C19.3456 27.189 21.2409 28.6327 23.6109 29.3264C24.8446 29.6875 26.152 29.7374 27.4302 29.7598C28.5323 29.7792 29.6498 29.7579 30.7454 29.6128C30.8304 29.7221 30.9202 29.8293 31.0235 29.9303C31.1093 30.0142 31.211 30.0227 31.2992 29.9868C31.4645 30.0853 31.6713 30.1075 31.8574 30.0318C31.9835 30.0969 32.1348 30.0988 32.2542 29.9849C33.2989 28.9875 33.5716 27.6953 33.768 26.301C33.9822 24.7785 33.9728 23.2624 33.8014 21.7362ZM17.3339 9.32248C17.5155 9.43523 17.6995 9.54429 17.8855 9.64959C17.7154 9.57102 17.5543 9.48159 17.3874 9.40711C17.3696 9.37866 17.3522 9.35022 17.3339 9.32248ZM24.6953 12.2092C24.6379 12.1812 24.5806 12.1527 24.5229 12.1252C24.5821 12.1447 24.6411 12.1641 24.6999 12.1844C24.6976 12.1925 24.6969 12.2009 24.6953 12.2092ZM27.2695 28.246C25.9806 28.1415 24.6404 27.7859 23.4669 27.2315C21.2493 26.1836 20.0779 24.3973 19.5216 22.0581C18.8955 19.4242 18.794 16.6964 18.4871 14.0162C18.3762 13.046 18.2893 11.9063 18.0029 10.8672C18.8151 11.2684 19.8173 11.5291 20.2386 11.6851C22.0574 12.3595 23.8589 13.1131 25.5257 14.1127C27.2469 15.1449 28.5716 16.4297 29.7152 18.0706C30.4366 19.1054 30.8565 20.2544 31.2432 21.426C31.6868 23.5291 31.5333 25.6364 31.235 27.7874C30.92 27.2034 30.4549 26.6718 30.0226 26.2656C28.8247 25.1408 27.6569 24.0322 26.6032 22.7643C26.3461 22.4543 26.0983 22.1368 25.8601 21.8121C26.2119 21.1196 26.1861 20.1319 26.2516 19.4379C26.3412 18.486 26.5646 17.0501 25.3771 16.6988C25.1886 16.643 25.0112 16.8174 25.0158 16.9989C25.0324 17.6583 25.1095 18.2976 25.0654 18.9591C25.0352 19.4133 24.9783 19.8665 24.9545 20.3209C24.9522 20.3639 24.9527 20.4167 24.954 20.4756C23.667 18.4245 22.7033 16.173 21.9639 13.8771C21.8971 13.6691 21.5954 13.6507 21.5287 13.8715C21.1892 14.9986 21.4388 16.3248 21.8045 17.4976C21.7108 17.4244 21.6263 17.3563 21.5621 17.3127C21.3131 17.1438 21.0704 16.973 20.8704 16.7449C20.5381 16.366 20.5444 15.7052 20.1214 15.4304C19.9675 15.3303 19.7298 15.3042 19.6084 15.4804C19.1746 16.1102 19.7038 17.2649 20.2343 17.707C20.5762 17.992 21.0299 18.1399 21.4336 18.3145C21.6866 18.4238 21.9277 18.5399 22.1812 18.5742C22.7613 20.1164 23.4718 21.5893 24.5015 22.8894C24.6513 23.0774 24.8052 23.262 24.9632 23.4432C24.6436 23.3703 24.3234 23.2892 24.0503 23.1269C23.533 22.8194 23.0946 22.3989 22.5399 22.1598C22.1808 22.0051 21.8132 22.3918 21.888 22.7413C22.2942 24.6393 25.1106 26.3011 26.9204 25.4272C27.1982 25.6821 27.4781 25.9348 27.76 26.1852C28.3892 26.7456 29.0821 27.2899 29.6327 27.9291C29.7298 28.0438 29.8202 28.164 29.9033 28.2892C29.026 28.2889 28.1472 28.3173 27.2695 28.246Z" fill="#5AE564"/>
<path d="M32.563 32.7588C32.5516 31.8725 32.6334 30.758 32.2158 29.9358C32.2485 29.7522 32.2866 29.5685 32.336 29.3851C32.4151 29.091 32.0469 28.9726 31.8441 29.0899C31.4277 29.3307 30.9749 29.4537 30.5232 29.5931C30.3938 29.5723 30.2494 29.6243 30.1452 29.7168C30.1328 29.7212 30.1202 29.7252 30.1076 29.7296C29.9419 29.7895 29.9026 29.9895 29.9877 30.114C29.8905 31.1392 30.4443 32.1801 30.5733 33.1938C30.7173 34.3241 30.637 35.4732 30.4612 36.5961C30.2878 37.1129 30.1294 37.6361 29.9673 38.1575C29.5362 39.0608 28.9456 39.8788 28.2238 40.5721C27.2503 41.5044 26.0953 42.0786 24.8222 42.4956C24.2277 42.6903 23.64 42.8434 23.0297 42.9735C22.4167 43.1045 21.7756 43.1602 21.2377 43.4891C21.0681 43.5161 20.8987 43.5426 20.7282 43.5659C20.4668 43.4871 20.1845 43.4404 19.9029 43.4025C18.6903 42.9963 17.3975 42.7556 16.194 42.338C16.1367 42.318 16.0889 42.3255 16.0524 42.3488C15.2121 41.9627 14.3147 41.6448 13.5675 41.0852C11.9755 39.8926 10.2252 38.5291 9.13707 36.8453C8.096 35.2347 7.23378 33.5371 6.36658 31.8306C5.84658 30.8073 5.4 29.7506 4.96889 28.6871C4.91129 28.5449 4.85814 28.3916 4.80498 28.2338C4.81565 27.5506 4.79147 26.8435 4.5584 26.2236C4.54774 26.0565 4.52622 25.8853 4.48196 25.7266C4.57085 25.1998 4.4624 24.5867 4.45245 24.0846C4.44391 23.6457 4.44622 23.2183 4.43716 22.789C4.44622 22.6599 4.45582 22.531 4.46382 22.4018C4.4976 21.8478 4.55094 21.2752 4.43929 20.7395C4.56676 20.3125 4.69262 19.8844 4.84071 19.4631C5.22756 18.3632 5.61902 17.2537 6.0608 16.1746C6.45156 15.2204 6.88747 14.2775 7.39236 13.3778C7.64374 12.9298 7.92889 12.5369 8.25778 12.1443C8.51645 11.8354 8.70738 11.6139 8.68978 11.195C8.68871 11.1673 8.6816 11.1413 8.67662 11.1147C9.34791 10.1333 10.2016 9.42328 11.0873 8.62577C12.0373 7.77066 13.046 7.05297 14.1959 6.4903C14.4624 6.36002 14.7321 6.23648 15.0048 6.11982C15.365 6.00826 15.727 5.90277 16.0907 5.80337C16.8677 5.59306 17.712 5.50524 18.4062 5.1335C19.5509 4.97279 20.6574 4.99644 21.8336 5.00853C27.3092 5.06435 32.7664 7.34115 37.0533 10.675C38.1204 11.5047 39.1031 12.4251 39.9689 13.4647C40.4704 14.0687 40.9245 14.7105 41.3271 15.3843C41.6645 15.9467 41.9449 16.5737 42.3529 17.085C42.4684 17.2297 42.6039 17.3415 42.7445 17.4466C42.8388 18.3022 43.131 19.1122 43.71 19.7374C43.8469 20.2613 43.9936 20.7815 44.1879 21.2921C44.9915 23.4041 44.5148 25.7106 44.1941 27.8716C44.1668 28.0565 44.2885 28.1684 44.4256 28.1867C44.342 28.467 44.2546 28.7438 44.1621 29.0128C43.8457 29.9337 43.4524 30.8183 43.0252 31.6935C42.8092 32.1362 42.6676 33.0546 42.258 33.3147C41.9774 33.4926 41.9508 34.0144 42.3371 34.0965L42.685 34.3028C42.8596 34.5187 43.1748 34.4457 43.3228 34.2512C45.6329 31.2188 47.4919 27.1765 46.6508 23.2834C46.6391 23.2341 46.6152 23.1884 46.5815 23.1506C46.584 20.4466 46.1861 17.5964 44.5115 15.5445C44.4295 15.2953 44.3198 15.0468 44.2238 14.8126C43.934 14.1059 43.5015 13.4574 43.0683 12.8309C42.354 11.798 41.5115 10.8713 40.6044 10.0076C40.3762 9.61297 40.0078 9.29955 39.6517 8.96728C39.1326 8.48231 38.6034 7.9015 37.9979 7.4935C37.2011 6.62915 36.3054 5.9095 35.1925 5.41617C34.6174 5.16124 33.9977 4.97813 33.3607 4.83075C32.6105 4.46844 31.7977 4.20373 30.9998 3.94382C30.925 3.91946 30.8612 3.93386 30.8119 3.96942C28.4244 3.06915 25.8923 2.4999 23.35 2.39608C22.3817 2.35662 21.4005 2.41422 20.4235 2.54968C20.0674 2.50844 19.701 2.52177 19.3452 2.51839C18.0357 2.50595 16.7554 2.60319 15.563 3.17688C14.4649 3.70542 13.3079 4.09262 12.2116 4.62897C11.5154 4.96959 10.726 5.3095 10.3378 5.99608C9.64445 6.13955 9.14898 6.73386 8.64285 7.2551C7.98297 7.93467 7.34599 8.6361 6.73298 9.35822C5.54614 10.7566 4.33831 12.202 3.46685 13.824C2.39289 15.8229 1.85565 17.9111 1.69351 20.0524C0.906847 22.0421 1.42151 24.408 1.73529 26.4441C1.98116 28.0384 2.19271 29.9296 2.99609 31.4213C3.10631 31.7618 3.23005 32.0907 3.34809 32.3975C3.85867 33.7262 4.41174 35.0391 5.07822 36.298C6.33725 38.6763 8.01227 40.7936 10.2263 42.349C10.6256 42.6297 11.181 43.0261 11.7636 43.3196C12.3563 43.6964 12.9936 44.0067 13.7298 44.2592C15.0999 44.7287 16.5056 45.1303 17.9111 45.4782C19.4768 45.866 21.0773 46.1216 22.693 45.9664C24.2864 45.8135 25.7607 45.1447 27.107 44.309C29.5659 42.7826 31.4196 40.6754 32.0437 37.8023C32.2233 36.9812 32.3391 36.1474 32.39 35.3084C32.5749 34.4789 32.574 33.605 32.563 32.7588ZM31.4062 30.1918C31.3789 30.16 31.3508 30.1289 31.3218 30.0987C31.3605 30.0839 31.3988 30.0684 31.4368 30.0519C31.4254 30.0981 31.4151 30.1449 31.4062 30.1918Z" fill="#0FAD1A"/>
<path d="M43.8487 36.3703C43.8405 36.3678 43.8324 36.3664 43.8244 36.3639C43.7824 36.2208 43.733 36.0799 43.6764 35.9419C42.7378 33.6709 40.0893 32.7106 37.9179 33.8599C36.6912 34.5092 34.4708 36.9812 36.4253 38.0528C36.5591 38.1262 36.7783 38.1589 36.8686 38.1621C36.4873 38.8212 35.8411 39.8727 35.3095 40.6434C34.6681 41.5732 36.394 42.0091 36.6044 41.2489C36.6951 41.1511 37.552 40.0405 38.3557 38.7204C38.5988 38.9049 38.8274 39.1106 39.0331 39.3132C38.3579 40.5175 36.8864 42.3909 37.9216 43.0155C38.2413 43.2082 38.45 43.1801 38.7858 43.0555C38.8532 43.1145 38.9508 43.1449 39.0302 43.107C39.4937 42.8857 39.7182 42.3726 39.8613 41.9006C39.9177 41.7148 39.9886 41.5038 40.0263 41.2923C40.0804 41.2119 40.1341 41.131 40.187 41.0492C40.9438 42.3342 43.8183 41.7035 44.0347 38.3351C44.3067 38.2121 44.5248 37.9792 44.5764 37.6617C44.594 37.5529 44.6101 37.4377 44.6098 37.3275C44.6075 36.8596 44.2725 36.5058 43.8487 36.3703Z" fill="#0FAD1A"/>
<path d="M36.3481 36.2181C37.0284 35.779 37.5673 35.1131 38.3013 34.7739C39.3529 34.288 40.3476 34.5689 41.2119 35.2752C41.8761 35.8178 42.4649 36.5054 42.6427 37.3662C42.8036 38.1458 42.5671 38.8005 42.4546 39.5497C42.4148 39.8153 42.6988 39.965 42.9131 39.8359C43.8505 39.2711 44.0217 37.8864 43.8151 36.9074C43.5692 35.7426 42.832 34.6921 41.8592 34.0167C40.8171 33.2932 39.5607 32.9753 38.3602 33.5049C37.2775 33.9826 36.3255 34.9557 36.282 36.1783C36.2807 36.2144 36.3159 36.2388 36.3481 36.2181Z" fill="#20C924"/>
<path d="M36.3353 36.4893C37.0725 36.9628 37.9011 37.1536 38.5474 37.7829C39.1353 38.3556 39.6105 39.126 40.3621 39.4896C40.5497 39.5803 40.8331 39.4235 40.8348 39.2069C40.8496 37.4027 38.0539 34.955 36.3035 36.0347C36.1187 36.1485 36.1801 36.3897 36.3353 36.4893ZM35.6153 41.4075C35.6939 41.4644 35.7394 41.5367 35.8336 41.579C35.9303 41.6224 36.0505 41.6516 36.1559 41.6388C36.3479 41.6155 36.5367 41.475 36.6533 41.326C36.9063 41.0028 36.8755 40.6501 36.7954 40.275C36.7536 40.08 36.4727 40.1005 36.4203 40.2752C36.3669 40.4533 36.3063 40.6343 36.2364 40.8066C36.1827 40.9387 36.1177 40.9733 35.9975 41.0332C35.9555 41.0541 35.9175 41.088 35.8693 41.0937C35.811 41.1008 35.7627 41.0653 35.7006 41.0823C35.5762 41.1168 35.4912 41.3175 35.6153 41.4075ZM38.56 43.0517C38.9276 42.9659 39.2403 42.5973 39.4569 42.2994C39.6571 42.0244 39.8498 41.5673 39.8217 41.2274C39.8124 41.1165 39.6901 40.9963 39.5747 41.0766C39.2851 41.2788 39.0176 41.6306 38.8203 41.9207C38.6288 42.2021 38.3675 42.4526 38.2787 42.7861C38.2325 42.9595 38.4009 43.0889 38.56 43.0517ZM5.59644 10.9092C6.61066 9.91183 7.51342 8.80463 8.5831 7.86276C9.59999 6.96747 10.7419 6.18898 11.9292 5.53689C13.1145 4.88587 14.3721 4.37796 15.6704 4.00143C16.9724 3.62383 18.2834 3.52569 19.6275 3.41689C22.5806 3.17778 25.5387 3.66934 28.4819 3.87058C30.0867 3.98027 31.39 4.66258 32.8252 5.31538C34.1735 5.92871 35.4688 6.51076 36.6706 7.39431C37.9483 8.33369 39.0992 9.22845 40.1134 10.466C41.0926 11.661 41.9426 12.9758 42.7495 14.2914C42.8131 14.3952 42.9792 14.3271 42.926 14.2098C42.2963 12.8183 41.5255 11.5435 40.5954 10.3307C39.7806 9.26809 38.8763 8.13103 37.8988 7.22525C36.7605 6.17049 35.3477 5.39592 34.0156 4.62169C32.7202 3.8688 31.2811 3.12054 29.8062 2.80445C28.1001 2.43858 26.2622 2.49903 24.5259 2.27911C23.0482 2.09209 21.5771 2.0032 20.0883 2.0864C17.4883 2.23165 14.7458 3.08267 12.4092 4.20943C9.4951 5.61458 6.92017 7.89227 5.42008 10.7863C5.36888 10.8852 5.52035 10.9836 5.59644 10.9092ZM2.94648 18.0581C2.99217 18.0581 2.98648 17.9872 2.94097 17.9872C2.89528 17.9872 2.90079 18.0583 2.9463 18.0583L2.94648 18.0581ZM2.76924 18.077C2.42826 18.8674 1.99768 19.6 1.80533 20.4407C1.63718 21.1771 1.51229 21.9226 1.43128 22.6736C1.28835 23.9968 1.35306 25.3319 1.53973 26.648C1.9287 29.3947 2.96782 31.9769 4.27004 34.4109C6.57226 38.714 10.2576 43.1451 15.3936 43.8882C15.558 43.9122 15.5799 43.6756 15.4451 43.618C13.0686 42.6014 11.022 41.2999 9.22115 39.4306C7.40746 37.5477 5.9799 35.3932 4.84408 33.0416C3.7239 30.7225 2.85226 28.3095 2.58542 25.7342C2.4567 24.4928 2.43395 23.219 2.50062 21.9726C2.53404 21.3504 2.63662 20.7431 2.6935 20.1246C2.7575 19.4283 2.73315 18.8023 2.87537 18.1065C2.88817 18.0441 2.79359 18.0204 2.76924 18.077ZM30.0569 41.6997C32.2583 38.4322 32.8338 33.6277 31.3547 29.9657C31.3127 29.8615 31.1543 29.9165 31.1707 30.0233C31.4693 31.9749 31.6878 34.0446 31.3678 36.0073C31.0638 37.8724 30.3719 39.6891 29.5666 41.3924C29.429 41.6836 29.8677 41.9804 30.0569 41.6997Z" fill="#20C924"/>
<path d="M43.6053 33.3518C46.1538 29.4688 47.002 24.8114 45.9744 20.2757C45.4789 18.0887 44.3701 16.1093 43.2384 14.1972C42.162 12.3789 40.7732 10.4549 39.07 9.1737L38.9296 9.38045C42.3467 12.0301 43.6923 15.9422 45.3266 19.7611C45.5408 20.2617 46.245 19.8581 46.0619 19.3687C44.6428 15.5753 42.5876 11.4103 39.07 9.1737C38.9515 9.09814 38.8114 9.24943 38.9056 9.35912C40.2542 10.93 41.6665 12.3577 42.7774 14.1271C43.9245 15.9543 44.5422 17.9837 45.011 20.0782C45.9888 24.4469 45.6034 29.2612 43.3986 33.2112C43.3214 33.3499 43.5159 33.4885 43.6053 33.3518Z" fill="#20C924"/>
<path d="M27.8347 3.68854C28.2784 4.12391 29.1612 4.18205 29.7477 4.36462C30.6174 4.63538 31.475 4.92854 32.3129 5.28782C33.9643 5.99671 35.5278 6.89474 36.9723 7.96391C39.7959 10.0523 41.8997 12.7632 43.8242 15.6599C43.9762 15.8889 44.3824 15.7104 44.2697 15.4421C42.877 12.1252 40.1964 9.3888 37.2724 7.33547C35.8052 6.30542 34.2181 5.43414 32.5564 4.76089C31.7191 4.42151 30.8558 4.11502 29.9804 3.88694C29.368 3.72747 28.453 3.37529 27.8462 3.62827C27.8405 3.63044 27.8354 3.63405 27.8314 3.63875C27.8274 3.64346 27.8247 3.64909 27.8236 3.65513C27.8224 3.66117 27.8228 3.66741 27.8247 3.67325C27.8266 3.6791 27.83 3.68436 27.8345 3.68854H27.8347Z" fill="#20C924"/>
<path d="M17.9035 10.546C20.4773 11.6985 23.2652 12.36 25.7708 13.6841C27.0148 14.3413 27.9872 15.2683 28.8004 16.4089C29.4533 17.325 29.886 18.4521 30.6155 19.3003C30.8135 19.5307 31.2162 19.3115 31.136 19.0206C30.7995 17.7988 29.8965 16.5042 29.125 15.5127C28.3863 14.5634 27.4928 13.7657 26.4334 13.1909C25.1063 12.4713 23.648 11.9701 22.2263 11.4745C20.856 10.9966 19.4299 10.5084 17.9883 10.3058C17.8514 10.2864 17.7625 10.483 17.9035 10.546ZM19.2484 22.4327C20.1118 25.4341 23.5106 28.7367 26.8512 27.7861C27.1184 27.71 27.0571 27.3033 26.8005 27.2645C25.1072 27.0085 23.571 26.7134 22.2722 25.5145C21.2165 24.5397 20.6352 23.2228 19.6612 22.1957C19.4933 22.0188 19.1812 22.1993 19.2484 22.4327ZM31.1017 33.6601C30.9435 35.0281 31.1646 36.3884 30.9413 37.7655C30.72 39.1321 30.1634 40.3166 29.6631 41.5916C29.5636 41.8455 29.9068 41.9774 30.0626 41.7938C31.0702 40.6036 31.5588 38.902 31.7189 37.3728C31.8485 36.1372 31.8656 34.7212 31.1984 33.6324C31.1689 33.5844 31.1074 33.6119 31.1017 33.6601ZM5.80996 10.6222C3.6352 13.4482 2.40569 16.7282 2.03324 20.2782C1.85973 21.9317 1.88604 23.6347 2.128 25.2798C2.35822 26.8444 2.70489 28.611 3.51467 29.992C3.64356 30.2117 4.008 30.1111 3.95093 29.8418C3.64373 28.3883 3.14649 27.0011 2.94649 25.518C2.73493 23.949 2.68622 22.3723 2.82009 20.7941C3.11609 17.3076 4.27964 13.8187 6.12124 10.8382C6.23378 10.656 5.9424 10.4501 5.80996 10.6222ZM32.9335 6.34045C34.6361 7.03307 36.2917 7.92996 37.6388 9.19787C39.2388 10.704 40.1691 12.5188 41.1319 14.4546C41.2272 14.6462 41.5644 14.614 41.5284 14.3653C40.9458 10.3593 36.8821 6.71734 33.0064 6.04622C32.832 6.016 32.776 6.27627 32.9335 6.34045ZM40.5381 34.5591C41.1728 34.9397 41.7806 35.1772 42.2656 35.7653C42.4516 35.9909 42.5938 36.2334 42.7106 36.5006C42.8656 36.8555 42.8786 37.2498 43.0352 37.5961C43.138 37.8233 43.538 37.9314 43.6436 37.6338C44.1868 36.1031 42.1525 33.9022 40.5892 34.2414C40.4409 34.2734 40.4094 34.4816 40.5383 34.5589L40.5381 34.5591ZM38.7852 42.9524C39.3093 42.6372 39.6137 42.0592 39.5346 41.4519C39.5118 41.277 39.2548 41.2848 39.2059 41.4373C39.0672 41.8711 38.8556 42.2491 38.5353 42.573C38.3664 42.7438 38.5492 43.0942 38.7852 42.9524ZM36.1874 41.3836C36.47 41.1947 36.6878 40.9499 36.7751 40.6174C36.8128 40.4736 36.5829 40.3856 36.5074 40.5088C36.3765 40.7221 36.2313 40.9348 36.022 41.0784C35.8402 41.203 36.0007 41.5084 36.1874 41.3836Z" fill="white"/>
<path d="M30.5641 14.1621C26.8277 10.7435 21.3262 10.1536 15.4996 7.4752C15.3588 7.27207 15.21 7.0747 15.0533 6.88356C14.8777 6.67093 14.5068 6.95111 14.6647 7.17973C14.9484 7.59138 15.207 8.01971 15.4393 8.4624C16.3065 10.9063 16.7842 13.3303 16.8864 15.8775C16.8434 17.1038 16.7966 18.3655 16.8526 19.6151C16.8503 23.1931 17.6508 26.2249 20.8837 28.1637C24.1913 30.6066 28.1509 29.9522 30.2606 29.9433C30.3892 29.9428 30.4036 29.7502 30.2731 29.742L30.1013 29.7314C27.6444 29.3904 24.3669 29.6238 21.9483 28.1847C19.7065 26.8508 18.1451 24.4926 17.6862 21.9346C16.8439 17.2398 18.3876 12.027 15.736 7.82951C20.195 10.6811 25.9646 10.8428 30.0155 14.5109C32.1301 16.4256 33.0306 18.8652 33.2101 21.6709C33.5017 26.2292 32.312 27.3867 32.096 29.5383C31.9886 30.6096 34.2551 26.6311 33.7932 21.0453C33.5707 18.3531 32.5748 16.0018 30.5641 14.1621Z" fill="black"/>
<path d="M46.6893 20.4837C45.8327 15.5687 43.0939 11.1253 39.2875 7.93404C35.0478 4.37955 29.6306 2.46204 24.1465 2.06026C5.56019 0.697949 -3.21261 18.7804 2.9929 32.966C8.06614 44.5632 20.4226 48.7915 28.3422 43.7827C32.4804 41.1655 33.2637 35.4519 32.0174 31.0571C30.896 27.102 27.5131 25.7479 24.8679 21.9116C24.8692 21.9104 24.8709 21.9097 24.8722 21.9081C25.701 20.9115 25.5684 19.0158 24.7465 18.0715C24.6814 17.9968 24.5502 18.0626 24.5732 18.1598C24.7344 18.837 24.9438 19.4946 24.9328 20.1989C24.9248 20.7063 24.7806 21.1758 24.7003 21.6667C23.667 20.109 22.7358 18.0823 22.0816 15.1635C22.0585 15.0604 21.899 15.0793 21.9165 15.1867C22.0711 16.136 22.2852 17.0684 22.5671 17.9778C22.5657 17.978 22.5643 17.9774 22.5627 17.9778C21.5538 18.1134 20.8889 16.8027 20.4756 16.0969C20.4117 15.9877 20.2137 16.0514 20.235 16.1796C20.3918 17.1236 21.5246 18.7207 22.634 18.1867C23.5529 21.0329 24.7861 22.8059 26.5093 24.6034C24.8407 24.3931 23.6388 23.6761 22.2996 22.6757C22.1499 22.5639 21.8804 22.7182 22.0141 22.9029C23.0427 24.3241 24.9829 24.9372 26.67 24.7691C28.8197 26.9792 31.334 28.7024 31.9168 33.1029C32.2341 35.4985 31.9564 38.0283 30.861 40.2032C27.1716 47.5282 12.8343 47.7138 5.30241 36.1088C-3.40053 22.6995 3.95396 5.16906 18.0112 2.90275C23.6301 1.99679 29.7623 3.01066 34.7952 5.65973C43.5694 10.2784 49.1991 21.0592 45.2996 30.7216C44.7529 32.0763 44.0107 33.3385 43.1079 34.4828C42.8323 34.2235 42.5383 33.9846 42.2281 33.7678C47.3232 27.861 44.5257 17.9683 39.7931 12.7376C36.9456 9.59057 32.9337 7.26613 28.9426 5.90079C25.0523 4.56977 20.7444 4.15093 16.7611 5.33244C0.695652 10.0976 0.332985 33.9058 14.4336 41.5852C18.6894 43.9029 22.7499 44.3721 26.9333 41.776C30.8791 39.3276 31.2359 34.4601 30.226 30.3317C30.194 30.2007 30.0009 30.2457 30.0228 30.3774C30.7707 34.8672 30.7161 38.6231 26.8699 41.1774C23.133 43.6592 19.5653 43.5173 15.4939 41.5783C8.67805 38.3323 4.74952 31.2393 4.71858 23.8126C4.70436 20.3806 5.33903 16.8121 6.96641 13.7628C8.68427 10.5443 11.6532 7.90524 14.9789 6.43875C22.4889 3.1271 31.3803 6.22684 37.4267 11.1465C43.7657 16.3045 46.7753 26.4773 41.9125 33.5579L41.8962 33.5474C38.909 31.677 36.1572 34.088 35.6557 36.1483C35.4391 37.038 35.7629 37.6357 36.3691 38.2745C36.4263 38.3349 36.5245 38.2402 36.4745 38.1755C35.8416 37.3563 35.7234 36.5449 36.2119 35.6162C37.2761 33.5934 39.6798 32.5486 41.9694 34.2327C43.1545 35.1045 44.405 36.51 44.1147 38.0955C43.9371 39.0654 43.3335 40.3218 42.5253 40.9943C42.5911 40.5278 42.3886 40.0316 42.1095 39.6418C40.8288 37.8528 38.7173 36.4357 36.5015 36.2215C36.4066 36.2124 36.3872 36.3392 36.4766 36.3652C38.888 37.0686 40.8491 38.6933 41.7284 40.0398C41.9568 40.3897 42.136 40.802 41.8485 41.1943C41.3532 41.8706 40.3943 41.1427 40.2153 41.1799C40.3913 40.8611 40.5612 40.5396 40.7036 40.2064C40.7458 40.1075 40.5977 40.034 40.5383 40.1211C40.1787 40.6491 39.8932 41.2265 39.5847 41.7858C39.2149 42.456 39.1028 42.6876 38.8837 42.9977C37.8798 42.8996 37.5211 42.5883 37.8075 42.0636C37.933 41.5964 38.3467 41.168 38.6087 40.7701C38.9252 40.2901 39.2125 39.7936 39.4875 39.2889C39.5351 39.2014 39.3968 39.1438 39.3477 39.2267C38.8245 40.1145 38.0775 40.926 37.6286 41.8469C36.9609 43.2164 38.2407 44.1443 39.0836 43.1696C39.4107 42.7911 39.4956 42.467 40.0494 41.4789C40.0626 41.5129 40.0866 41.544 40.1241 41.5682C40.8562 42.034 41.6948 42.2535 42.2539 41.5945C42.6428 41.7843 44.4482 40.0948 44.6898 37.9236C44.827 36.6889 44.1621 35.5401 43.2759 34.6471C46.5351 30.7301 47.5565 25.4603 46.6893 20.4837Z" fill="black"/>
<path d="M38.7748 38.4923C38.8158 38.4171 38.7068 38.3447 38.646 38.395C38.0084 38.9218 37.0914 40.3996 36.6816 41.117C36.5088 41.5861 36.1074 41.6748 35.4772 41.3835C35.1572 40.8718 36.1008 39.8784 36.3481 39.4272C36.6551 38.8668 36.9588 38.3349 37.4421 37.9067C37.4859 37.8679 37.4256 37.7904 37.378 37.8258C36.5084 38.4724 36.1589 39.4798 35.4951 40.3013C35.0411 40.8631 34.8053 41.2133 35.4462 41.778C35.915 42.1909 36.3623 42.131 36.7132 41.6293C37.1067 41.0668 37.4012 40.4302 37.7957 39.8631C38.1159 39.4025 38.5056 38.9836 38.7748 38.4923Z" fill="black"/>
</svg>
