<svg width="715" height="736" viewBox="0 0 715 736" fill="none" xmlns="http://www.w3.org/2000/svg">
<g filter="url(#filter0_bd_4_91)">
<rect x="232" y="152" width="251" height="272" rx="24" fill="white" fill-opacity="0.8" shape-rendering="crispEdges"/>
<rect x="233" y="153" width="249" height="270" rx="23" stroke="url(#paint0_linear_4_91)" stroke-width="2" shape-rendering="crispEdges"/>
<g clip-path="url(#clip0_4_91)">
<path d="M375.297 256.455C375.198 254.438 374.952 252.406 373.694 250.778C373.304 248.75 372.096 246.735 370.985 245.17C366.536 238.905 361.437 237.661 355.682 235.988C354.66 235.4 353.498 235.114 352.433 234.6C351.443 234.123 350.382 233.545 349.269 233.553L349.266 233.552C346.604 232.087 348.161 232.596 344.102 231.292C343.486 230.936 342.865 230.59 342.239 230.253C341.993 230.105 341.715 230.393 341.898 230.627C343.022 232.062 342.784 231.538 343.788 234.863C344.326 236.648 344.217 238.682 344.283 240.534C344.347 242.294 344.461 244.057 344.468 245.817C344.471 246.68 344.094 251.645 345.299 252.251C345.144 258.092 346.564 261.497 350.064 265.092C352.52 267.613 355.119 268.648 358.476 269.501C363.81 270.856 364.486 270.329 367.156 270.616C367.803 270.74 368.467 270.724 369.14 270.667L369.104 270.565C373.048 270.272 374.458 267.72 375.085 263.919C375.489 261.469 375.419 258.925 375.297 256.455Z" fill="#82EE8D"/>
<path d="M375.469 255.849C375.167 253.158 374.205 250.674 373.331 248.129C372.949 247.015 372.544 245.872 371.874 244.891C371.144 243.824 370.032 243.028 369.028 242.23C367.187 240.765 365.454 239.26 363.287 238.289C361.073 237.297 358.696 236.575 356.409 235.769C351.728 234.121 346.79 233.209 342.579 230.442C342.345 230.288 342.036 230.545 342.165 230.802L342.378 231.226C342.461 231.39 342.623 231.395 342.735 231.32C342.733 231.352 342.736 231.384 342.746 231.415C343.473 233.816 343.82 236.214 344.124 238.699C344.45 241.37 344.851 244.114 344.808 246.808C344.729 251.943 344.434 257.087 346.872 261.798C348.967 265.846 352.442 268.493 356.787 269.765C359.048 270.427 361.445 270.518 363.789 270.559C365.809 270.595 367.858 270.556 369.867 270.29C370.022 270.49 370.187 270.687 370.376 270.872C370.534 271.026 370.72 271.042 370.882 270.976C371.185 271.156 371.564 271.197 371.905 271.058C372.136 271.177 372.414 271.181 372.633 270.972C374.548 269.144 375.048 266.774 375.408 264.218C375.801 261.427 375.783 258.648 375.469 255.849ZM345.279 233.091C345.612 233.298 345.949 233.498 346.29 233.691C345.978 233.547 345.683 233.383 345.377 233.246C345.344 233.194 345.312 233.142 345.279 233.091ZM358.775 238.383C358.669 238.332 358.564 238.28 358.459 238.229C358.567 238.265 358.675 238.301 358.783 238.338C358.779 238.353 358.778 238.368 358.775 238.383ZM363.494 267.784C361.131 267.593 358.674 266.941 356.523 265.924C352.457 264.003 350.309 260.728 349.29 256.44C348.142 251.611 347.956 246.61 347.393 241.696C347.19 239.918 347.03 237.828 346.505 235.923C347.994 236.659 349.832 237.136 350.604 237.423C353.939 238.659 357.241 240.04 360.297 241.873C363.453 243.765 365.881 246.121 367.978 249.129C369.3 251.026 370.07 253.133 370.779 255.281C371.592 259.136 371.311 263 370.764 266.943C370.187 265.873 369.334 264.898 368.541 264.153C366.345 262.091 364.204 260.059 362.273 257.734C361.801 257.166 361.347 256.584 360.91 255.989C361.555 254.719 361.508 252.908 361.628 251.636C361.792 249.891 362.202 247.258 360.025 246.614C359.679 246.512 359.354 246.832 359.362 247.165C359.393 248.373 359.534 249.545 359.453 250.758C359.398 251.591 359.294 252.422 359.25 253.255C359.246 253.334 359.247 253.43 359.249 253.538C356.89 249.778 355.123 245.65 353.767 241.441C353.645 241.06 353.092 241.026 352.969 241.431C352.347 243.497 352.804 245.929 353.475 248.079C353.303 247.944 353.148 247.82 353.031 247.74C352.574 247.43 352.129 247.117 351.762 246.699C351.153 246.004 351.165 244.793 350.389 244.289C350.107 244.105 349.671 244.057 349.449 244.38C348.653 245.535 349.624 247.652 350.596 248.463C351.223 248.985 352.055 249.256 352.795 249.576C353.259 249.777 353.701 249.99 354.165 250.053C355.229 252.88 356.532 255.58 358.419 257.964C358.694 258.308 358.976 258.647 359.266 258.979C358.68 258.845 358.093 258.697 357.592 258.399C356.644 257.835 355.84 257.065 354.823 256.626C354.165 256.343 353.491 257.051 353.628 257.692C354.373 261.172 359.536 264.219 362.854 262.616C363.363 263.084 363.877 263.547 364.393 264.006C365.547 265.033 366.817 266.031 367.827 267.203C368.005 267.413 368.17 267.634 368.323 267.863C366.714 267.863 365.103 267.915 363.494 267.784Z" fill="#5AE564"/>
<path d="M373.199 276.058C373.178 274.433 373.328 272.39 372.562 270.882C372.622 270.546 372.692 270.209 372.783 269.873C372.928 269.334 372.253 269.117 371.881 269.332C371.118 269.773 370.287 269.999 369.459 270.254C369.222 270.216 368.957 270.311 368.766 270.481C368.743 270.489 368.72 270.496 368.697 270.504C368.393 270.614 368.321 270.981 368.478 271.209C368.299 273.089 369.315 274.997 369.551 276.855C369.815 278.928 369.668 281.034 369.345 283.093C369.028 284.04 368.737 285 368.44 285.956C367.65 287.612 366.567 289.111 365.244 290.382C363.459 292.091 361.341 293.144 359.007 293.909C357.918 294.266 356.84 294.546 355.721 294.785C354.597 295.025 353.422 295.127 352.436 295.73C352.125 295.78 351.814 295.828 351.502 295.871C351.023 295.727 350.505 295.641 349.989 295.571C347.766 294.827 345.395 294.385 343.189 293.62C343.084 293.583 342.996 293.597 342.929 293.64C341.389 292.932 339.744 292.349 338.374 291.323C335.455 289.137 332.246 286.637 330.251 283.55C328.343 280.597 326.762 277.485 325.172 274.356C324.219 272.48 323.4 270.543 322.61 268.593C322.504 268.332 322.407 268.051 322.309 267.762C322.329 266.51 322.284 265.213 321.857 264.077C321.838 263.77 321.798 263.457 321.717 263.166C321.88 262.2 321.681 261.076 321.663 260.155C321.647 259.351 321.651 258.567 321.635 257.78C321.651 257.543 321.669 257.307 321.684 257.07C321.746 256.054 321.843 255.005 321.639 254.023C321.872 253.24 322.103 252.455 322.375 251.683C323.084 249.666 323.802 247.632 324.611 245.654C325.328 243.904 326.127 242.176 327.053 240.526C327.514 239.705 328.036 238.984 328.639 238.265C329.114 237.698 329.464 237.292 329.431 236.524C329.429 236.474 329.416 236.426 329.407 236.377C330.638 234.578 332.203 233.276 333.827 231.814C335.568 230.246 337.418 228.931 339.526 227.899C340.014 227.66 340.509 227.434 341.009 227.22C341.669 227.015 342.333 226.822 343 226.64C344.424 226.254 345.972 226.093 347.245 225.412C349.343 225.117 351.372 225.16 353.528 225.182C363.567 225.285 373.572 229.459 381.431 235.571C383.387 237.092 385.189 238.779 386.776 240.685C387.696 241.793 388.528 242.969 389.266 244.205C389.885 245.236 390.399 246.385 391.147 247.323C391.359 247.588 391.607 247.793 391.865 247.986C392.038 249.554 392.574 251.039 393.635 252.185C393.886 253.146 394.155 254.1 394.511 255.036C395.984 258.908 395.111 263.136 394.523 267.098C394.472 267.437 394.696 267.642 394.947 267.676C394.794 268.19 394.633 268.697 394.464 269.19C393.884 270.879 393.163 272.5 392.38 274.105C391.984 274.916 391.724 276.6 390.973 277.077C390.459 277.403 390.41 278.36 391.118 278.51L391.756 278.889C392.076 279.285 392.654 279.151 392.925 278.794C397.16 273.235 400.569 265.824 399.027 258.686C399.005 258.596 398.961 258.512 398.899 258.443C398.904 253.486 398.175 248.26 395.104 244.498C394.954 244.042 394.753 243.586 394.577 243.157C394.046 241.861 393.253 240.672 392.459 239.524C391.149 237.63 389.604 235.931 387.941 234.347C387.523 233.624 386.848 233.049 386.195 232.44C385.243 231.551 384.273 230.486 383.163 229.738C381.702 228.154 380.06 226.834 378.02 225.93C376.965 225.462 375.829 225.127 374.661 224.857C373.286 224.192 371.796 223.707 370.333 223.23C370.196 223.186 370.079 223.212 369.989 223.277C365.611 221.627 360.969 220.583 356.308 220.393C354.533 220.321 352.734 220.426 350.943 220.675C350.29 220.599 349.618 220.623 348.966 220.617C346.566 220.594 344.218 220.773 342.032 221.824C340.019 222.793 337.898 223.503 335.888 224.487C334.612 225.111 333.164 225.734 332.453 226.993C331.182 227.256 330.273 228.346 329.345 229.301C328.135 230.547 326.968 231.833 325.844 233.157C323.668 235.721 321.454 238.37 319.856 241.344C317.887 245.009 316.902 248.837 316.605 252.763C315.163 256.411 316.106 260.748 316.681 264.481C317.132 267.404 317.52 270.871 318.993 273.606C319.195 274.23 319.422 274.833 319.638 275.396C320.574 277.832 321.588 280.239 322.81 282.546C325.118 286.907 328.189 290.788 332.248 293.64C332.98 294.155 333.998 294.881 335.067 295.419C336.153 296.11 337.322 296.679 338.671 297.142C341.183 298.003 343.76 298.739 346.337 299.377C349.207 300.088 352.142 300.556 355.104 300.272C358.025 299.992 360.728 298.765 363.196 297.233C367.704 294.435 371.103 290.572 372.247 285.304C372.576 283.799 372.788 282.27 372.882 280.732C373.221 279.212 373.219 277.609 373.199 276.058ZM371.078 271.352C371.028 271.293 370.976 271.237 370.923 271.181C370.994 271.154 371.064 271.126 371.134 271.095C371.113 271.18 371.094 271.266 371.078 271.352Z" fill="#0FAD1A"/>
<path d="M393.889 282.679C393.874 282.675 393.859 282.672 393.845 282.667C393.768 282.405 393.677 282.147 393.573 281.894C391.853 277.73 386.997 275.97 383.016 278.077C380.767 279.267 376.696 283.799 380.28 285.764C380.525 285.898 380.927 285.958 381.092 285.964C380.393 287.172 379.209 289.1 378.234 290.513C377.058 292.218 380.222 293.017 380.608 291.623C380.774 291.444 382.345 289.408 383.819 286.988C384.264 287.326 384.684 287.703 385.061 288.074C383.823 290.282 381.125 293.717 383.023 294.862C383.609 295.215 383.992 295.164 384.607 294.935C384.731 295.043 384.91 295.099 385.055 295.03C385.905 294.624 386.317 293.683 386.579 292.818C386.682 292.477 386.812 292.091 386.882 291.703C386.981 291.555 387.079 291.407 387.176 291.257C388.564 293.613 393.834 292.457 394.23 286.281C394.729 286.056 395.129 285.629 395.223 285.047C395.256 284.847 395.285 284.636 395.285 284.434C395.28 283.576 394.666 282.927 393.889 282.679Z" fill="#0FAD1A"/>
<path d="M380.138 282.4C381.385 281.595 382.373 280.374 383.719 279.752C385.647 278.861 387.471 279.376 389.055 280.671C390.273 281.666 391.352 282.927 391.678 284.505C391.973 285.934 391.54 287.134 391.333 288.508C391.26 288.995 391.781 289.269 392.174 289.033C393.893 287.997 394.206 285.459 393.828 283.664C393.377 281.528 392.025 279.602 390.242 278.364C388.331 277.038 386.028 276.455 383.827 277.426C381.842 278.302 380.097 280.086 380.017 282.327C380.015 282.393 380.079 282.438 380.138 282.4Z" fill="#20C924"/>
<path d="M380.115 282.897C381.466 283.765 382.985 284.115 384.17 285.269C385.248 286.318 386.119 287.731 387.497 288.397C387.841 288.564 388.361 288.276 388.364 287.879C388.391 284.571 383.265 280.084 380.056 282.063C379.718 282.272 379.83 282.714 380.115 282.897ZM378.795 291.914C378.939 292.018 379.022 292.151 379.195 292.228C379.372 292.308 379.593 292.361 379.786 292.338C380.138 292.295 380.484 292.037 380.698 291.764C381.162 291.172 381.105 290.525 380.958 289.837C380.882 289.48 380.367 289.517 380.271 289.838C380.173 290.164 380.062 290.496 379.934 290.812C379.835 291.054 379.716 291.118 379.495 291.228C379.419 291.266 379.349 291.328 379.26 291.338C379.154 291.351 379.065 291.286 378.951 291.317C378.723 291.381 378.567 291.749 378.795 291.914ZM384.193 294.928C384.867 294.771 385.441 294.095 385.838 293.549C386.205 293.045 386.558 292.207 386.506 291.583C386.49 291.38 386.265 291.16 386.054 291.307C385.523 291.678 385.032 292.323 384.671 292.855C384.319 293.37 383.84 293.83 383.678 294.441C383.593 294.759 383.902 294.996 384.193 294.928ZM323.76 236C325.62 234.172 327.275 232.142 329.236 230.415C331.1 228.774 333.193 227.346 335.37 226.151C337.543 224.957 339.849 224.026 342.229 223.336C344.616 222.644 347.02 222.464 349.484 222.264C354.898 221.826 360.321 222.727 365.717 223.096C368.659 223.297 371.048 224.548 373.68 225.745C376.151 226.869 378.526 227.936 380.729 229.556C383.072 231.278 385.182 232.919 387.041 235.187C388.837 237.378 390.395 239.789 391.874 242.201C391.991 242.391 392.295 242.266 392.198 242.051C391.043 239.5 389.63 237.163 387.925 234.939C386.431 232.991 384.773 230.907 382.981 229.246C380.894 227.312 378.304 225.892 375.862 224.473C373.487 223.093 370.849 221.721 368.145 221.141C365.017 220.471 361.647 220.581 358.464 220.178C355.755 219.835 353.058 219.672 350.329 219.825C345.562 220.091 340.534 221.651 336.25 223.717C330.908 226.293 326.187 230.469 323.437 235.775C323.343 235.956 323.621 236.137 323.76 236ZM318.902 249.106C318.986 249.106 318.975 248.976 318.892 248.976C318.808 248.976 318.818 249.107 318.902 249.107L318.902 249.106ZM318.577 249.141C317.952 250.59 317.162 251.933 316.81 253.475C316.502 254.825 316.273 256.191 316.124 257.568C315.862 259.994 315.981 262.442 316.323 264.855C317.036 269.89 318.941 274.624 321.328 279.086C325.549 286.975 332.306 295.099 341.722 296.462C342.023 296.506 342.063 296.072 341.816 295.966C337.459 294.103 333.707 291.716 330.405 288.289C327.08 284.837 324.463 280.888 322.381 276.576C320.327 272.324 318.729 267.901 318.24 263.179C318.004 260.903 317.962 258.568 318.085 256.283C318.146 255.142 318.334 254.029 318.438 252.895C318.555 251.618 318.511 250.471 318.772 249.195C318.795 249.081 318.622 249.037 318.577 249.141ZM368.604 292.449C372.64 286.459 373.695 277.651 370.984 270.937C370.907 270.746 370.616 270.847 370.646 271.043C371.194 274.621 371.594 278.415 371.008 282.013C370.45 285.433 369.182 288.763 367.705 291.886C367.453 292.42 368.258 292.964 368.604 292.449Z" fill="#20C924"/>
<path d="M393.443 277.145C398.115 270.026 399.67 261.488 397.786 253.172C396.878 249.163 394.845 245.534 392.77 242.028C390.797 238.695 388.251 235.167 385.128 232.819L384.871 233.198C391.136 238.055 393.602 245.228 396.599 252.229C396.991 253.147 398.282 252.407 397.947 251.509C395.345 244.555 391.577 236.919 385.128 232.819C384.911 232.68 384.654 232.957 384.827 233.158C387.299 236.038 389.889 238.656 391.925 241.9C394.028 245.25 395.161 248.97 396.02 252.81C397.813 260.819 397.106 269.646 393.064 276.887C392.923 277.142 393.279 277.396 393.443 277.145Z" fill="#20C924"/>
<path d="M364.53 222.762C365.344 223.561 366.962 223.667 368.037 224.002C369.632 224.498 371.204 225.036 372.74 225.694C375.768 226.994 378.634 228.64 381.282 230.601C386.459 234.429 390.316 239.399 393.844 244.71C394.123 245.13 394.868 244.803 394.661 244.311C392.108 238.23 387.193 233.213 381.833 229.448C379.143 227.56 376.233 225.963 373.187 224.728C371.652 224.106 370.069 223.544 368.464 223.126C367.341 222.834 365.664 222.188 364.551 222.652C364.541 222.656 364.531 222.663 364.524 222.671C364.517 222.68 364.512 222.69 364.51 222.701C364.508 222.712 364.508 222.724 364.512 222.734C364.515 222.745 364.522 222.755 364.53 222.762H364.53Z" fill="#20C924"/>
<path d="M346.323 235.334C351.042 237.447 356.153 238.66 360.747 241.087C363.027 242.292 364.81 243.992 366.301 246.083C367.498 247.762 368.291 249.829 369.628 251.384C369.991 251.806 370.73 251.404 370.583 250.871C369.966 248.631 368.31 246.257 366.896 244.44C365.542 242.699 363.903 241.237 361.961 240.183C359.528 238.864 356.855 237.945 354.248 237.036C351.736 236.16 349.121 235.265 346.478 234.894C346.228 234.858 346.065 235.219 346.323 235.334ZM348.789 257.126C350.372 262.629 356.603 268.684 362.727 266.941C363.217 266.802 363.105 266.056 362.634 265.985C359.53 265.515 356.714 264.974 354.332 262.776C352.397 260.989 351.331 258.575 349.545 256.692C349.238 256.368 348.665 256.698 348.789 257.126ZM370.52 277.71C370.23 280.218 370.635 282.712 370.226 285.237C369.82 287.742 368.8 289.914 367.882 292.251C367.7 292.717 368.329 292.958 368.615 292.622C370.462 290.44 371.358 287.32 371.651 284.517C371.889 282.251 371.92 279.655 370.697 277.659C370.643 277.571 370.53 277.622 370.52 277.71ZM324.152 235.474C320.165 240.655 317.91 246.668 317.228 253.177C316.91 256.208 316.958 259.33 317.401 262.346C317.823 265.215 318.459 268.453 319.944 270.985C320.18 271.388 320.848 271.203 320.743 270.71C320.18 268.045 319.269 265.502 318.902 262.783C318.514 259.906 318.425 257.016 318.67 254.122C319.213 247.73 321.346 241.334 324.722 235.87C324.929 235.536 324.394 235.158 324.152 235.474ZM373.878 227.624C377 228.894 380.035 230.538 382.504 232.863C385.438 235.624 387.143 238.951 388.909 242.5C389.083 242.851 389.701 242.792 389.635 242.336C388.567 234.992 381.117 228.315 374.012 227.085C373.692 227.029 373.589 227.506 373.878 227.624ZM387.82 279.358C388.983 280.056 390.098 280.491 390.987 281.57C391.328 281.983 391.589 282.428 391.803 282.918C392.087 283.568 392.111 284.291 392.398 284.926C392.586 285.342 393.32 285.541 393.513 284.995C394.509 282.189 390.78 278.154 387.913 278.776C387.642 278.834 387.584 279.216 387.82 279.358L387.82 279.358ZM384.606 294.746C385.567 294.168 386.125 293.108 385.98 291.995C385.938 291.674 385.467 291.689 385.377 291.968C385.123 292.763 384.735 293.456 384.148 294.05C383.838 294.363 384.173 295.006 384.606 294.746ZM379.844 291.87C380.362 291.523 380.761 291.075 380.921 290.465C380.99 290.201 380.569 290.04 380.43 290.266C380.19 290.657 379.924 291.047 379.54 291.31C379.207 291.539 379.501 292.099 379.844 291.87Z" fill="white"/>
<path d="M369.534 241.964C362.684 235.696 352.598 234.615 341.916 229.705C341.658 229.332 341.385 228.97 341.098 228.62C340.776 228.23 340.096 228.744 340.385 229.163C340.905 229.918 341.38 230.703 341.805 231.515C343.395 235.995 344.271 240.439 344.458 245.109C344.379 247.357 344.294 249.67 344.396 251.961C344.392 258.521 345.86 264.079 351.787 267.634C357.851 272.112 365.11 270.912 368.978 270.896C369.213 270.895 369.24 270.542 369.001 270.527L368.686 270.508C364.181 269.883 358.173 270.31 353.738 267.672C349.629 265.227 346.766 260.903 345.925 256.214C344.38 247.606 347.21 238.05 342.349 230.354C350.524 235.582 361.102 235.879 368.528 242.604C372.405 246.114 374.056 250.586 374.385 255.73C374.92 264.087 372.739 266.209 372.343 270.154C372.146 272.118 376.301 264.824 375.454 254.583C375.046 249.647 373.22 245.337 369.534 241.964Z" fill="black"/>
<path d="M399.097 253.554C397.527 244.543 392.505 236.396 385.527 230.546C377.754 224.029 367.823 220.514 357.769 219.777C323.694 217.28 307.61 250.431 318.987 276.438C328.288 297.699 350.941 305.451 365.461 296.268C373.047 291.47 374.483 280.995 372.199 272.938C370.143 265.687 363.941 263.205 359.091 256.171C359.093 256.169 359.097 256.168 359.099 256.165C360.618 254.338 360.375 250.862 358.869 249.131C358.749 248.994 358.509 249.115 358.551 249.293C358.846 250.534 359.23 251.74 359.21 253.031C359.195 253.962 358.931 254.822 358.784 255.722C356.89 252.866 355.182 249.151 353.983 243.8C353.941 243.611 353.648 243.645 353.68 243.842C353.964 245.583 354.356 247.292 354.873 248.959C354.87 248.96 354.868 248.959 354.865 248.959C353.015 249.208 351.796 246.805 351.039 245.511C350.922 245.311 350.558 245.428 350.598 245.663C350.885 247.393 352.962 250.321 354.996 249.342C356.68 254.56 358.941 257.811 362.1 261.106C359.041 260.721 356.838 259.406 354.383 257.572C354.108 257.367 353.614 257.65 353.859 257.989C355.745 260.594 359.302 261.718 362.395 261.41C366.336 265.462 370.946 268.621 372.014 276.689C372.596 281.081 372.087 285.719 370.078 289.706C363.315 303.135 337.03 303.475 323.221 282.199C307.266 257.616 320.749 225.477 346.521 221.322C356.822 219.661 368.064 221.52 377.291 226.376C393.377 234.844 403.698 254.609 396.549 272.323C395.547 274.807 394.186 277.121 392.531 279.219C392.026 278.743 391.487 278.305 390.918 277.908C400.259 267.078 395.13 248.942 386.454 239.352C381.234 233.583 373.878 229.321 366.561 226.818C359.429 224.378 351.531 223.61 344.229 225.776C314.775 234.512 314.11 278.161 339.962 292.24C347.764 296.489 355.208 297.349 362.878 292.589C370.112 288.101 370.766 279.177 368.914 271.608C368.856 271.368 368.502 271.45 368.542 271.692C369.913 279.923 369.813 286.809 362.761 291.492C355.91 296.042 349.37 295.782 341.905 292.227C329.41 286.276 322.207 273.272 322.151 259.656C322.125 253.364 323.288 246.822 326.272 241.232C329.421 235.331 334.864 230.493 340.961 227.804C354.73 221.733 371.031 227.416 382.116 236.435C393.737 245.892 399.255 264.542 390.34 277.523L390.31 277.504C384.833 274.074 379.788 278.495 378.869 282.272C378.472 283.903 379.065 284.999 380.177 286.17C380.282 286.281 380.462 286.107 380.37 285.988C379.21 284.487 378.993 282.999 379.889 281.296C381.84 277.588 386.246 275.673 390.444 278.76C392.617 280.358 394.909 282.935 394.377 285.842C394.051 287.62 392.945 289.923 391.463 291.156C391.584 290.301 391.213 289.391 390.701 288.677C388.353 285.397 384.482 282.799 380.419 282.406C380.245 282.39 380.21 282.622 380.374 282.669C384.795 283.959 388.39 286.938 390.002 289.406C390.421 290.048 390.749 290.804 390.222 291.523C389.314 292.763 387.556 291.428 387.228 291.497C387.551 290.912 387.862 290.323 388.123 289.712C388.201 289.531 387.929 289.396 387.82 289.555C387.161 290.523 386.637 291.582 386.072 292.607C385.394 293.836 385.188 294.261 384.787 294.829C382.946 294.649 382.289 294.079 382.814 293.117C383.044 292.26 383.802 291.475 384.283 290.745C384.863 289.865 385.39 288.955 385.894 288.03C385.981 287.869 385.727 287.764 385.638 287.916C384.678 289.543 383.309 291.031 382.486 292.719C381.262 295.23 383.608 296.931 385.153 295.144C385.753 294.45 385.909 293.856 386.924 292.045C386.948 292.107 386.992 292.164 387.061 292.208C388.403 293.062 389.94 293.465 390.965 292.257C391.679 292.605 394.988 289.507 395.431 285.527C395.683 283.263 394.464 281.157 392.839 279.52C398.814 272.339 400.687 262.677 399.097 253.554Z" fill="black"/>
<path d="M384.587 286.569C384.662 286.431 384.463 286.298 384.351 286.391C383.182 287.356 381.501 290.066 380.75 291.381C380.433 292.241 379.697 292.404 378.541 291.87C377.955 290.932 379.685 289.11 380.138 288.283C380.701 287.256 381.258 286.281 382.144 285.495C382.224 285.424 382.114 285.282 382.026 285.347C380.432 286.532 379.791 288.38 378.574 289.886C377.742 290.916 377.31 291.558 378.485 292.593C379.344 293.35 380.164 293.24 380.808 292.32C381.529 291.289 382.069 290.122 382.792 289.082C383.379 288.238 384.094 287.47 384.587 286.569Z" fill="black"/>
</g>
<path d="M305.792 350.344H310.272C311.872 350.344 312.672 349.576 312.672 348.04V346.056C312.672 344.52 311.829 343.752 310.144 343.752H305.792C305.557 343.752 305.44 343.859 305.44 344.072V350.024C305.44 350.237 305.557 350.344 305.792 350.344ZM305.792 341.192H309.952C311.573 341.192 312.384 340.413 312.384 338.856V337.384C312.384 335.848 311.595 335.08 310.016 335.08H305.792C305.557 335.08 305.44 335.187 305.44 335.4V340.872C305.44 341.085 305.557 341.192 305.792 341.192ZM302.336 352.456V332.968C302.336 332.605 302.517 332.424 302.88 332.424H310.464C312.043 332.424 313.269 332.851 314.144 333.704C315.019 334.557 315.456 335.763 315.456 337.32V338.888C315.456 340.744 314.581 341.939 312.832 342.472C313.664 342.579 314.347 342.941 314.88 343.56C315.435 344.179 315.712 345.011 315.712 346.056V348.104C315.712 349.661 315.275 350.867 314.4 351.72C313.525 352.573 312.309 353 310.752 353H302.88C302.517 353 302.336 352.819 302.336 352.456ZM319.832 333.96V331.048C319.832 330.707 320.003 330.536 320.344 330.536H322.424C322.766 330.536 322.936 330.707 322.936 331.048V333.96C322.936 334.323 322.766 334.504 322.424 334.504H320.344C320.003 334.504 319.832 334.323 319.832 333.96ZM319.832 352.456V337.224C319.832 336.861 320.003 336.68 320.344 336.68H322.392C322.755 336.68 322.936 336.861 322.936 337.224V352.456C322.936 352.669 322.894 352.819 322.808 352.904C322.744 352.968 322.616 353 322.424 353H320.376C320.014 353 319.832 352.819 319.832 352.456ZM334.597 353H331.781C330.202 353 328.976 352.563 328.101 351.688C327.248 350.813 326.821 349.597 326.821 348.04V341.64C326.821 340.061 327.248 338.845 328.101 337.992C328.976 337.117 330.202 336.68 331.781 336.68H334.597C336.154 336.68 337.37 337.117 338.245 337.992C339.141 338.845 339.589 340.061 339.589 341.64V348.04C339.589 349.597 339.141 350.813 338.245 351.688C337.37 352.563 336.154 353 334.597 353ZM332.229 350.28H334.181C335.717 350.28 336.485 349.501 336.485 347.944V341.736C336.485 340.179 335.717 339.4 334.181 339.4H332.229C331.418 339.4 330.832 339.592 330.469 339.976C330.106 340.339 329.925 340.925 329.925 341.736V347.944C329.925 348.755 330.106 349.352 330.469 349.736C330.832 350.099 331.418 350.28 332.229 350.28ZM342.242 336.68H344.386C344.727 336.68 344.93 336.861 344.994 337.224L348.322 350.088H348.546L351.81 337.224C351.895 336.861 352.119 336.68 352.482 336.68H354.594C354.978 336.68 355.106 336.861 354.978 337.224L350.658 352.424C350.573 352.808 350.338 353 349.954 353H346.882C346.498 353 346.263 352.808 346.178 352.424L341.858 337.224C341.773 336.861 341.901 336.68 342.242 336.68ZM369.162 353H362.25C360.671 353 359.444 352.563 358.57 351.688C357.716 350.813 357.29 349.597 357.29 348.04V341.64C357.29 340.061 357.716 338.845 358.57 337.992C359.444 337.117 360.671 336.68 362.25 336.68H364.874C366.452 336.68 367.679 337.117 368.554 337.992C369.428 338.845 369.866 340.061 369.866 341.64V345.704C369.866 346.088 369.674 346.28 369.29 346.28H360.714C360.479 346.28 360.362 346.387 360.362 346.6V347.976C360.362 349.533 361.14 350.312 362.698 350.312H369.162C369.546 350.312 369.738 350.504 369.738 350.888V352.488C369.738 352.829 369.546 353 369.162 353ZM360.714 344.104H366.442C366.655 344.104 366.762 343.997 366.762 343.784V341.736C366.762 340.925 366.58 340.339 366.218 339.976C365.855 339.592 365.268 339.4 364.458 339.4H362.698C361.887 339.4 361.3 339.592 360.938 339.976C360.575 340.339 360.394 340.925 360.394 341.736V343.784C360.394 343.997 360.5 344.104 360.714 344.104ZM375.951 353H373.935C373.572 353 373.391 352.819 373.391 352.456V337.224C373.391 336.861 373.572 336.68 373.935 336.68H375.951C376.314 336.68 376.495 336.861 376.495 337.224V338.44H376.623C376.836 337.907 377.242 337.48 377.839 337.16C378.458 336.84 379.14 336.68 379.887 336.68H381.071C381.434 336.68 381.615 336.861 381.615 337.224V338.888C381.615 339.293 381.434 339.464 381.071 339.4H379.151C377.38 339.4 376.495 340.371 376.495 342.312V352.456C376.495 352.819 376.314 353 375.951 353ZM390.062 352.2H388.622C387.086 352.2 385.902 351.773 385.07 350.92C384.259 350.045 383.854 348.819 383.854 347.24V341.64C383.854 340.061 384.291 338.845 385.166 337.992C386.04 337.117 387.256 336.68 388.814 336.68H395.982C396.366 336.68 396.558 336.861 396.558 337.224V353.064C396.558 354.621 396.11 355.827 395.214 356.68C394.339 357.555 393.123 357.992 391.566 357.992H385.55C385.187 357.992 385.006 357.821 385.006 357.48V355.816C385.006 355.453 385.187 355.272 385.55 355.272H391.086C392.643 355.272 393.422 354.483 393.422 352.904V350.472H393.294C392.76 351.624 391.683 352.2 390.062 352.2ZM393.422 346.76V339.72C393.422 339.507 393.304 339.4 393.07 339.4H389.262C387.747 339.4 386.99 340.189 386.99 341.768V347.08C386.99 348.659 387.747 349.448 389.262 349.448H390.798C392.547 349.448 393.422 348.552 393.422 346.76ZM412.099 353H405.187C403.609 353 402.382 352.563 401.507 351.688C400.654 350.813 400.227 349.597 400.227 348.04V341.64C400.227 340.061 400.654 338.845 401.507 337.992C402.382 337.117 403.609 336.68 405.187 336.68H407.811C409.39 336.68 410.617 337.117 411.491 337.992C412.366 338.845 412.803 340.061 412.803 341.64V345.704C412.803 346.088 412.611 346.28 412.227 346.28H403.651C403.417 346.28 403.299 346.387 403.299 346.6V347.976C403.299 349.533 404.078 350.312 405.635 350.312H412.099C412.483 350.312 412.675 350.504 412.675 350.888V352.488C412.675 352.829 412.483 353 412.099 353ZM403.651 344.104H409.379C409.593 344.104 409.699 343.997 409.699 343.784V341.736C409.699 340.925 409.518 340.339 409.155 339.976C408.793 339.592 408.206 339.4 407.395 339.4H405.635C404.825 339.4 404.238 339.592 403.875 339.976C403.513 340.339 403.331 340.925 403.331 341.736V343.784C403.331 343.997 403.438 344.104 403.651 344.104Z" fill="#011202"/>
</g>
<defs>
<filter id="filter0_bd_4_91" x="0" y="0" width="715" height="736" filterUnits="userSpaceOnUse" color-interpolation-filters="sRGB">
<feFlood flood-opacity="0" result="BackgroundImageFix"/>
<feGaussianBlur in="BackgroundImageFix" stdDeviation="40"/>
<feComposite in2="SourceAlpha" operator="in" result="effect1_backgroundBlur_4_91"/>
<feColorMatrix in="SourceAlpha" type="matrix" values="0 0 0 0 0 0 0 0 0 0 0 0 0 0 0 0 0 0 127 0" result="hardAlpha"/>
<feOffset dy="80"/>
<feGaussianBlur stdDeviation="116"/>
<feComposite in2="hardAlpha" operator="out"/>
<feColorMatrix type="matrix" values="0 0 0 0 0 0 0 0 0 0.19 0 0 0 0 0.475 0 0 0 0.24 0"/>
<feBlend mode="normal" in2="effect1_backgroundBlur_4_91" result="effect2_dropShadow_4_91"/>
<feBlend mode="normal" in="SourceGraphic" in2="effect2_dropShadow_4_91" result="shape"/>
</filter>
<linearGradient id="paint0_linear_4_91" x1="357.5" y1="152" x2="357.5" y2="424" gradientUnits="userSpaceOnUse">
<stop stop-color="white"/>
<stop offset="1" stop-color="white" stop-opacity="0"/>
</linearGradient>
<clipPath id="clip0_4_91">
<rect width="88" height="88" fill="white" transform="translate(313.5 216)"/>
</clipPath>
</defs>
</svg>
