<svg width="255" height="272" viewBox="0 0 255 272" fill="none" xmlns="http://www.w3.org/2000/svg">
<g filter="url(#filter0_b_1_282)">
<rect width="255" height="272" rx="24" fill="white" fill-opacity="0.8"/>
<rect x="0.5" y="0.5" width="254" height="271" rx="23.5" stroke="url(#paint0_linear_1_282)"/>
<g clip-path="url(#clip0_1_282)">
<path d="M145.297 104.455C145.198 102.438 144.952 100.406 143.694 98.7786C143.304 96.7501 142.096 94.7352 140.985 93.1707C136.536 86.9048 131.437 85.6607 125.682 83.9878C124.66 83.4005 123.498 83.114 122.433 82.6006C121.443 82.1235 120.382 81.545 119.269 81.5534L119.266 81.5518C116.604 80.0877 118.161 80.5959 114.102 79.2922C113.486 78.9367 112.865 78.5904 112.239 78.2534C111.993 78.1048 111.715 78.3929 111.898 78.6269C113.022 80.0626 112.784 79.5386 113.788 82.863C114.326 84.6484 114.217 86.6822 114.283 88.5341C114.347 90.2941 114.461 92.057 114.468 93.8174C114.471 94.6804 114.094 99.6456 115.299 100.251C115.144 106.093 116.564 109.498 120.064 113.092C122.52 115.613 125.119 116.648 128.476 117.501C133.81 118.857 134.486 118.33 137.156 118.616C137.803 118.74 138.467 118.725 139.14 118.668L139.104 118.565C143.048 118.272 144.458 115.721 145.085 111.919C145.489 109.47 145.419 106.925 145.297 104.455Z" fill="#82EE8D"/>
<path d="M145.469 103.85C145.167 101.158 144.205 98.674 143.331 96.1295C142.949 95.0148 142.544 93.8718 141.874 92.8914C141.144 91.824 140.032 91.0281 139.028 90.2302C137.187 88.7649 135.454 87.2604 133.287 86.2891C131.073 85.2973 128.696 84.5751 126.409 83.7697C121.728 82.1215 116.79 81.2096 112.579 78.4421C112.345 78.2883 112.036 78.5451 112.165 78.8023L112.378 79.226C112.461 79.3903 112.623 79.3955 112.735 79.3199C112.733 79.3521 112.736 79.3845 112.746 79.4154C113.473 81.8161 113.82 84.2143 114.124 86.6995C114.45 89.3698 114.851 92.1147 114.808 94.8082C114.729 99.9428 114.434 105.087 116.872 109.798C118.967 113.846 122.442 116.493 126.787 117.765C129.048 118.427 131.445 118.519 133.789 118.56C135.809 118.595 137.858 118.556 139.867 118.29C140.022 118.491 140.187 118.687 140.376 118.872C140.534 119.026 140.72 119.042 140.882 118.976C141.185 119.156 141.564 119.197 141.905 119.058C142.136 119.178 142.414 119.181 142.633 118.972C144.548 117.144 145.048 114.775 145.408 112.218C145.801 109.427 145.783 106.648 145.469 103.85ZM115.279 81.0913C115.612 81.298 115.949 81.4979 116.29 81.691C115.978 81.5469 115.683 81.383 115.377 81.2464C115.344 81.1943 115.312 81.1421 115.279 81.0913ZM128.775 86.3837C128.669 86.3322 128.564 86.28 128.459 86.2295C128.567 86.2653 128.675 86.3009 128.783 86.338C128.779 86.353 128.778 86.3683 128.775 86.3837ZM133.494 115.784C131.131 115.593 128.674 114.941 126.523 113.924C122.457 112.003 120.309 108.728 119.29 104.44C118.142 99.611 117.956 94.61 117.393 89.6964C117.19 87.9178 117.03 85.8283 116.505 83.9232C117.994 84.6588 119.832 85.1367 120.604 85.4228C123.939 86.6591 127.241 88.0407 130.297 89.8733C133.453 91.7657 135.881 94.1211 137.978 97.1294C139.3 99.0266 140.07 101.133 140.779 103.281C141.592 107.137 141.311 111 140.764 114.944C140.187 113.873 139.334 112.898 138.541 112.154C136.345 110.092 134.204 108.059 132.273 105.735C131.801 105.166 131.347 104.584 130.91 103.989C131.555 102.719 131.508 100.909 131.628 99.6361C131.792 97.8911 132.202 95.2586 130.025 94.6146C129.679 94.5122 129.354 94.832 129.362 95.1647C129.393 96.3736 129.534 97.5456 129.453 98.7584C129.398 99.5911 129.294 100.422 129.25 101.255C129.246 101.334 129.247 101.431 129.249 101.539C126.89 97.7783 125.123 93.6505 123.767 89.4415C123.645 89.0602 123.092 89.0263 122.969 89.4311C122.347 91.4974 122.804 93.9288 123.475 96.079C123.303 95.9447 123.148 95.8199 123.031 95.74C122.574 95.4304 122.129 95.1172 121.762 94.699C121.153 94.0045 121.165 92.793 120.389 92.2891C120.107 92.1056 119.671 92.0577 119.449 92.3807C118.653 93.5354 119.624 95.6523 120.596 96.4629C121.223 96.9854 122.055 97.2565 122.795 97.5766C123.259 97.777 123.701 97.9899 124.165 98.0528C125.229 100.88 126.532 103.58 128.419 105.964C128.694 106.309 128.976 106.647 129.266 106.979C128.68 106.846 128.093 106.697 127.592 106.399C126.644 105.836 125.84 105.065 124.823 104.626C124.165 104.343 123.491 105.052 123.628 105.692C124.373 109.172 129.536 112.219 132.854 110.617C133.363 111.084 133.877 111.547 134.393 112.006C135.547 113.034 136.817 114.032 137.827 115.203C138.005 115.414 138.17 115.634 138.323 115.864C136.714 115.863 135.103 115.915 133.494 115.784Z" fill="#5AE564"/>
<path d="M143.199 124.058C143.178 122.433 143.328 120.39 142.562 118.882C142.622 118.546 142.692 118.209 142.783 117.873C142.928 117.334 142.253 117.116 141.881 117.332C141.118 117.773 140.287 117.998 139.459 118.254C139.222 118.216 138.957 118.311 138.766 118.481C138.743 118.489 138.72 118.496 138.697 118.504C138.393 118.614 138.321 118.981 138.478 119.209C138.299 121.089 139.315 122.997 139.551 124.855C139.815 126.928 139.668 129.034 139.345 131.093C139.028 132.04 138.737 133 138.44 133.955C137.65 135.611 136.567 137.111 135.244 138.382C133.459 140.091 131.341 141.144 129.007 141.909C127.918 142.266 126.84 142.546 125.721 142.785C124.597 143.025 123.422 143.127 122.436 143.73C122.125 143.78 121.814 143.828 121.502 143.871C121.023 143.726 120.505 143.641 119.989 143.571C117.766 142.827 115.395 142.385 113.189 141.62C113.084 141.583 112.996 141.597 112.929 141.639C111.389 140.932 109.744 140.349 108.374 139.323C105.455 137.136 102.246 134.637 100.251 131.55C98.3427 128.597 96.7619 125.485 95.1721 122.356C94.2187 120.48 93.4 118.543 92.6096 116.593C92.504 116.332 92.4066 116.051 92.3091 115.762C92.3287 114.509 92.2844 113.213 91.8571 112.077C91.8375 111.77 91.7981 111.456 91.7169 111.165C91.8799 110.2 91.6811 109.076 91.6628 108.155C91.6472 107.35 91.6514 106.567 91.6348 105.78C91.6514 105.543 91.669 105.307 91.6837 105.07C91.7456 104.054 91.8434 103.005 91.6387 102.023C91.8724 101.24 92.1032 100.455 92.3747 99.6824C93.0839 97.6659 93.8016 95.6318 94.6115 93.6534C95.3279 91.9042 96.127 90.1755 97.0527 88.5259C97.5135 87.7046 98.0363 86.9843 98.6393 86.2647C99.1135 85.6982 99.4635 85.2921 99.4313 84.5242C99.4293 84.4734 99.4163 84.4258 99.4072 84.3769C100.638 82.5778 102.203 81.2761 103.827 79.8139C105.568 78.2462 107.418 76.9305 109.526 75.8989C110.014 75.6601 110.509 75.4336 111.009 75.2197C111.669 75.0152 112.333 74.8218 113 74.6395C114.424 74.254 115.972 74.093 117.245 73.4115C119.343 73.1168 121.372 73.1602 123.528 73.1823C133.567 73.2847 143.572 77.4588 151.431 83.5709C153.387 85.092 155.189 86.7793 156.776 88.6853C157.696 89.7926 158.528 90.9692 159.266 92.2047C159.885 93.2356 160.399 94.3851 161.147 95.3225C161.359 95.5878 161.607 95.7928 161.865 95.9854C162.038 97.5541 162.574 99.039 163.635 100.185C163.886 101.146 164.155 102.099 164.511 103.036C165.984 106.908 165.111 111.136 164.523 115.098C164.472 115.437 164.696 115.642 164.947 115.676C164.794 116.19 164.633 116.697 164.464 117.19C163.884 118.878 163.163 120.5 162.38 122.105C161.984 122.916 161.724 124.6 160.973 125.077C160.459 125.403 160.41 126.36 161.118 126.51L161.756 126.888C162.076 127.284 162.654 127.15 162.925 126.794C167.16 121.235 170.569 113.824 169.027 106.686C169.005 106.596 168.961 106.512 168.899 106.443C168.904 101.485 168.175 96.2602 165.104 92.4983C164.954 92.0414 164.753 91.5857 164.577 91.1565C164.046 89.8609 163.253 88.672 162.459 87.5234C161.149 85.6298 159.604 83.9307 157.941 82.3474C157.523 81.6238 156.848 81.0492 156.195 80.4401C155.243 79.5509 154.273 78.4861 153.163 77.7381C151.702 76.1535 150.06 74.8341 148.02 73.9297C146.965 73.4623 145.829 73.1266 144.661 72.8564C143.286 72.1922 141.796 71.7069 140.333 71.2304C140.196 71.1857 140.079 71.2121 139.989 71.2773C135.611 69.6268 130.969 68.5832 126.308 68.3929C124.533 68.3205 122.734 68.4261 120.943 68.6745C120.29 68.5988 119.618 68.6233 118.966 68.6171C116.566 68.5943 114.218 68.7726 112.032 69.8243C110.019 70.7933 107.898 71.5032 105.888 72.4865C104.612 73.111 103.164 73.7341 102.453 74.9929C101.182 75.2559 100.273 76.3454 99.3452 77.3011C98.1355 78.5469 96.9677 79.8329 95.8438 81.1568C93.6679 83.7205 91.4536 86.3703 89.8559 89.344C87.887 93.0087 86.902 96.8371 86.6048 100.763C85.1626 104.411 86.1061 108.748 86.6814 112.481C87.1321 115.404 87.52 118.871 88.9928 121.606C89.1949 122.23 89.4218 122.833 89.6382 123.395C90.5742 125.831 91.5882 128.238 92.8101 130.546C95.1183 134.907 98.1892 138.788 102.248 141.64C102.98 142.154 103.998 142.881 105.067 143.419C106.153 144.11 107.322 144.679 108.671 145.142C111.183 146.003 113.76 146.739 116.337 147.377C119.207 148.088 122.142 148.556 125.104 148.272C128.025 147.991 130.728 146.765 133.196 145.233C137.704 142.435 141.103 138.572 142.247 133.304C142.576 131.799 142.788 130.27 142.882 128.732C143.221 127.211 143.219 125.609 143.199 124.058ZM141.078 119.352C141.028 119.293 140.976 119.236 140.923 119.181C140.994 119.154 141.064 119.126 141.134 119.095C141.113 119.18 141.094 119.266 141.078 119.352Z" fill="#0FAD1A"/>
<path d="M163.889 130.679C163.874 130.674 163.859 130.672 163.845 130.667C163.768 130.405 163.677 130.146 163.573 129.893C161.853 125.73 156.997 123.969 153.016 126.076C150.767 127.267 146.696 131.799 150.28 133.763C150.525 133.898 150.927 133.958 151.092 133.964C150.393 135.172 149.209 137.1 148.234 138.513C147.058 140.217 150.222 141.017 150.608 139.623C150.774 139.444 152.345 137.408 153.819 134.987C154.264 135.326 154.684 135.703 155.061 136.074C153.823 138.282 151.125 141.717 153.023 142.862C153.609 143.215 153.992 143.163 154.607 142.935C154.731 143.043 154.91 143.099 155.055 143.03C155.905 142.624 156.317 141.683 156.579 140.818C156.682 140.477 156.812 140.09 156.882 139.702C156.981 139.555 157.079 139.407 157.176 139.257C158.564 141.613 163.834 140.456 164.23 134.281C164.729 134.055 165.129 133.628 165.223 133.046C165.256 132.847 165.285 132.636 165.285 132.434C165.28 131.576 164.666 130.927 163.889 130.679Z" fill="#0FAD1A"/>
<path d="M150.138 130.4C151.385 129.595 152.373 128.374 153.719 127.752C155.647 126.861 157.471 127.376 159.055 128.671C160.273 129.666 161.352 130.927 161.678 132.505C161.973 133.934 161.54 135.134 161.333 136.508C161.26 136.995 161.781 137.269 162.174 137.033C163.893 135.997 164.206 133.458 163.828 131.664C163.377 129.528 162.025 127.602 160.242 126.364C158.331 125.037 156.028 124.455 153.827 125.426C151.842 126.301 150.097 128.086 150.017 130.327C150.015 130.393 150.079 130.438 150.138 130.4Z" fill="#20C924"/>
<path d="M150.115 130.897C151.466 131.765 152.985 132.115 154.17 133.269C155.248 134.319 156.119 135.731 157.497 136.398C157.841 136.564 158.361 136.276 158.364 135.879C158.391 132.572 153.265 128.084 150.056 130.064C149.718 130.272 149.83 130.714 150.115 130.897ZM148.795 139.914C148.939 140.018 149.022 140.151 149.195 140.228C149.372 140.308 149.593 140.361 149.786 140.338C150.138 140.295 150.484 140.038 150.698 139.764C151.162 139.172 151.105 138.525 150.958 137.838C150.882 137.48 150.367 137.518 150.271 137.838C150.173 138.164 150.062 138.496 149.934 138.812C149.835 139.054 149.716 139.118 149.495 139.228C149.419 139.266 149.349 139.328 149.26 139.338C149.154 139.351 149.065 139.286 148.951 139.318C148.723 139.381 148.567 139.749 148.795 139.914ZM154.193 142.928C154.867 142.771 155.441 142.095 155.838 141.549C156.205 141.045 156.558 140.207 156.506 139.584C156.49 139.38 156.265 139.16 156.054 139.307C155.523 139.678 155.032 140.323 154.671 140.855C154.319 141.371 153.84 141.83 153.678 142.441C153.593 142.759 153.902 142.996 154.193 142.928ZM93.7602 84.0001C95.6196 82.1717 97.2746 80.1418 99.2357 78.4151C101.1 76.7737 103.193 75.3465 105.37 74.151C107.543 72.9574 109.849 72.0263 112.229 71.336C114.616 70.6437 117.02 70.4638 119.484 70.2643C124.898 69.826 130.321 70.7271 135.717 71.0961C138.659 71.2972 141.048 72.5481 143.68 73.7449C146.151 74.8693 148.526 75.9364 150.729 77.5563C153.072 79.2785 155.182 80.9188 157.041 83.1876C158.837 85.3785 160.395 87.789 161.874 90.2009C161.991 90.3912 162.295 90.2664 162.198 90.0513C161.043 87.5003 159.63 85.163 157.925 82.9396C156.431 80.9915 154.773 78.9069 152.981 77.2463C150.894 75.3126 148.304 73.8925 145.862 72.4731C143.487 71.0928 140.849 69.721 138.145 69.1415C135.017 68.4708 131.647 68.5816 128.464 68.1784C125.755 67.8355 123.058 67.6726 120.329 67.8251C115.562 68.0914 110.534 69.6516 106.25 71.7173C100.908 74.2934 96.187 78.4692 93.4369 83.7749C93.343 83.9561 93.6207 84.1367 93.7602 84.0001ZM88.9019 97.1066C88.9857 97.1066 88.9753 96.9766 88.8918 96.9766C88.8081 96.9766 88.8182 97.1069 88.9016 97.1069L88.9019 97.1066ZM88.577 97.1411C87.9518 98.5902 87.1625 99.9334 86.8098 101.475C86.5015 102.825 86.2726 104.192 86.1241 105.568C85.862 107.994 85.9806 110.442 86.3229 112.855C87.036 117.89 88.941 122.624 91.3284 127.087C95.5492 134.976 102.306 143.099 111.722 144.462C112.023 144.506 112.063 144.072 111.816 143.966C107.459 142.103 103.707 139.717 100.405 136.289C97.0804 132.838 94.4632 128.888 92.3809 124.576C90.3272 120.325 88.7292 115.901 88.24 111.179C88.004 108.903 87.9623 106.568 88.0845 104.283C88.1458 103.142 88.3338 102.029 88.4381 100.895C88.5555 99.6185 88.5108 98.4709 88.7716 97.1953C88.795 97.0809 88.6216 97.0375 88.577 97.1411ZM138.604 140.45C142.64 134.459 143.695 125.651 140.984 118.937C140.907 118.746 140.616 118.847 140.646 119.043C141.194 122.621 141.594 126.415 141.008 130.013C140.45 133.433 139.182 136.763 137.705 139.886C137.453 140.42 138.258 140.964 138.604 140.45Z" fill="#20C924"/>
<path d="M163.443 125.145C168.115 118.026 169.67 109.488 167.786 101.172C166.878 97.1626 164.845 93.5338 162.77 90.0281C160.797 86.6945 158.251 83.1674 155.128 80.8184L154.871 81.1975C161.136 86.0551 163.602 93.2274 166.599 100.229C166.991 101.146 168.282 100.407 167.947 99.5093C165.345 92.5547 161.577 84.9189 155.128 80.8184C154.911 80.6799 154.654 80.9573 154.827 81.1584C157.299 84.0382 159.889 86.6558 161.925 89.8997C164.028 93.2496 165.161 96.97 166.02 100.81C167.813 108.819 167.106 117.645 163.064 124.887C162.923 125.141 163.279 125.396 163.443 125.145Z" fill="#20C924"/>
<path d="M134.53 70.7623C135.344 71.5605 136.962 71.6671 138.037 72.0018C139.632 72.4982 141.204 73.0356 142.74 73.6943C145.768 74.994 148.634 76.6404 151.282 78.6005C156.459 82.4291 160.316 87.3992 163.844 92.7098C164.123 93.1296 164.868 92.8024 164.661 92.3106C162.108 86.2294 157.193 81.2128 151.833 77.4483C149.143 75.5599 146.233 73.9626 143.187 72.7283C141.652 72.1061 140.069 71.5442 138.464 71.126C137.341 70.8337 135.664 70.188 134.551 70.6518C134.541 70.6558 134.531 70.6624 134.524 70.671C134.517 70.6797 134.512 70.69 134.51 70.7011C134.508 70.7121 134.508 70.7236 134.512 70.7343C134.515 70.745 134.522 70.7546 134.53 70.7623H134.53Z" fill="#20C924"/>
<path d="M116.323 83.3343C121.042 85.4473 126.153 86.66 130.747 89.0875C133.027 90.2925 134.81 91.9919 136.301 94.083C137.498 95.7625 138.291 97.8289 139.628 99.3839C139.991 99.8063 140.73 99.4044 140.583 98.8712C139.966 96.6311 138.31 94.2577 136.896 92.44C135.542 90.6996 133.903 89.2371 131.961 88.1834C129.528 86.8641 126.855 85.9453 124.248 85.0366C121.736 84.1605 119.121 83.2655 116.478 82.894C116.228 82.8584 116.065 83.2189 116.323 83.3343ZM118.789 105.127C120.372 110.629 126.603 116.684 132.727 114.941C133.217 114.802 133.105 114.056 132.634 113.985C129.53 113.516 126.714 112.975 124.332 110.777C122.397 108.99 121.331 106.575 119.545 104.692C119.238 104.368 118.665 104.699 118.789 105.127ZM140.52 125.71C140.23 128.218 140.635 130.712 140.226 133.237C139.82 135.742 138.8 137.914 137.882 140.251C137.7 140.717 138.329 140.959 138.615 140.622C140.462 138.44 141.358 135.32 141.651 132.517C141.889 130.252 141.92 127.656 140.697 125.659C140.643 125.571 140.53 125.622 140.52 125.71ZM94.1516 83.4741C90.1645 88.655 87.9104 94.6684 87.2276 101.177C86.9095 104.208 86.9577 107.33 87.4013 110.346C87.8234 113.215 88.459 116.454 89.9436 118.985C90.1799 119.388 90.848 119.204 90.7434 118.71C90.1802 116.045 89.2686 113.502 88.9019 110.783C88.514 107.906 88.4247 105.016 88.6702 102.123C89.2128 95.7306 91.346 89.3343 94.7223 83.8701C94.9286 83.536 94.3944 83.1586 94.1516 83.4741ZM143.878 75.6242C147 76.894 150.035 78.5383 152.504 80.8628C155.438 83.624 157.143 86.9511 158.909 90.5001C159.083 90.8514 159.701 90.7925 159.635 90.3365C158.567 82.9921 151.117 76.3152 144.012 75.0848C143.692 75.0294 143.589 75.5065 143.878 75.6242ZM157.82 127.358C158.983 128.056 160.098 128.492 160.987 129.57C161.328 129.983 161.589 130.428 161.803 130.918C162.087 131.568 162.111 132.291 162.398 132.926C162.586 133.343 163.32 133.541 163.513 132.995C164.509 130.189 160.78 126.154 157.913 126.776C157.642 126.835 157.584 127.216 157.82 127.358L157.82 127.358ZM154.606 142.746C155.567 142.168 156.125 141.109 155.98 139.995C155.938 139.674 155.467 139.689 155.377 139.968C155.123 140.764 154.735 141.457 154.148 142.05C153.838 142.364 154.173 143.006 154.606 142.746ZM149.844 139.87C150.362 139.524 150.761 139.075 150.921 138.465C150.99 138.202 150.569 138.04 150.43 138.266C150.19 138.657 149.924 139.047 149.54 139.31C149.207 139.539 149.501 140.099 149.844 139.87Z" fill="white"/>
<path d="M139.534 89.9639C132.684 83.6964 122.598 82.615 111.916 77.7046C111.658 77.3322 111.385 76.9703 111.098 76.6199C110.776 76.2301 110.096 76.7437 110.385 77.1629C110.905 77.9175 111.38 78.7028 111.805 79.5144C113.395 83.9949 114.271 88.4389 114.458 93.1088C114.379 95.357 114.294 97.6701 114.396 99.9611C114.392 106.521 115.86 112.079 121.787 115.634C127.851 120.112 135.11 118.912 138.978 118.896C139.213 118.895 139.24 118.542 139.001 118.527L138.686 118.508C134.181 117.882 128.173 118.31 123.738 115.672C119.629 113.227 116.766 108.903 115.925 104.213C114.38 95.6064 117.21 86.0496 112.349 78.3541C120.524 83.582 131.102 83.8786 138.528 90.6034C142.405 94.1136 144.056 98.5863 144.385 103.73C144.92 112.087 142.739 114.209 142.343 118.154C142.146 120.118 146.301 112.824 145.454 102.583C145.046 97.6473 143.22 93.3366 139.534 89.9639Z" fill="black"/>
<path d="M169.097 101.554C167.527 92.5427 162.505 84.3965 155.527 78.5458C147.754 72.0292 137.823 68.5138 127.769 67.7772C93.6937 65.2796 77.6102 98.4308 88.987 124.438C98.2879 145.699 120.941 153.451 135.461 144.268C143.047 139.47 144.483 128.995 142.199 120.938C140.143 113.687 133.941 111.205 129.091 104.171C129.093 104.169 129.097 104.168 129.099 104.165C130.618 102.338 130.375 98.8624 128.869 97.131C128.749 96.9942 128.509 97.1147 128.551 97.293C128.846 98.5345 129.23 99.7401 129.21 101.031C129.195 101.962 128.931 102.822 128.784 103.722C126.89 100.866 125.182 97.1509 123.983 91.7999C123.941 91.6108 123.648 91.6454 123.68 91.8422C123.964 93.5827 124.356 95.2922 124.873 96.9593C124.87 96.9596 124.868 96.9586 124.865 96.9593C123.015 97.208 121.796 94.8049 121.039 93.511C120.922 93.3109 120.558 93.4275 120.598 93.6625C120.885 95.3932 122.962 98.3213 124.996 97.3422C126.68 102.56 128.941 105.811 132.1 109.106C129.041 108.721 126.838 107.406 124.383 105.572C124.108 105.367 123.614 105.65 123.859 105.989C125.745 108.594 129.302 109.718 132.395 109.41C136.336 113.462 140.946 116.621 142.014 124.689C142.596 129.081 142.087 133.719 140.078 137.706C133.315 151.135 107.03 151.475 93.2211 130.199C77.2657 105.616 90.7489 73.4766 116.521 69.3217C126.822 67.6608 138.064 69.5196 147.291 74.3762C163.377 82.8438 173.698 102.609 166.549 120.323C165.547 122.807 164.186 125.121 162.531 127.219C162.026 126.743 161.487 126.305 160.918 125.908C170.259 115.078 165.13 96.942 156.454 87.3523C151.234 81.5827 143.878 77.3213 136.561 74.8182C129.429 72.3779 121.531 71.6101 114.229 73.7762C84.7754 82.5123 84.1105 126.161 109.962 140.24C117.764 144.489 125.208 145.349 132.878 140.589C140.112 136.101 140.766 127.177 138.914 119.608C138.856 119.368 138.502 119.45 138.542 119.692C139.913 127.923 139.813 134.809 132.761 139.492C125.91 144.042 119.37 143.782 111.905 140.227C99.4098 134.276 92.2075 121.272 92.1508 107.656C92.1247 101.364 93.2882 94.8222 96.2718 89.2319C99.4212 83.3313 104.864 78.493 110.961 75.8044C124.73 69.7331 141.031 75.4159 152.116 84.4353C163.737 93.8917 169.255 112.542 160.34 125.523L160.31 125.504C154.833 122.074 149.788 126.495 148.869 130.272C148.472 131.903 149.065 132.999 150.177 134.17C150.282 134.281 150.462 134.107 150.37 133.988C149.21 132.487 148.993 130.999 149.889 129.296C151.84 125.588 156.246 123.673 160.444 126.76C162.617 128.358 164.909 130.935 164.377 133.842C164.051 135.62 162.945 137.923 161.463 139.156C161.584 138.301 161.213 137.391 160.701 136.677C158.353 133.397 154.482 130.799 150.419 130.406C150.245 130.39 150.21 130.622 150.374 130.669C154.795 131.959 158.39 134.938 160.002 137.406C160.421 138.048 160.749 138.804 160.222 139.523C159.314 140.763 157.556 139.428 157.228 139.497C157.551 138.912 157.862 138.323 158.123 137.712C158.201 137.531 157.929 137.396 157.82 137.555C157.161 138.523 156.637 139.582 156.072 140.607C155.394 141.836 155.188 142.261 154.787 142.829C152.946 142.649 152.289 142.079 152.814 141.117C153.044 140.26 153.802 139.475 154.283 138.745C154.863 137.865 155.39 136.955 155.894 136.03C155.981 135.869 155.727 135.764 155.638 135.916C154.678 137.543 153.309 139.031 152.486 140.719C151.262 143.23 153.608 144.931 155.153 143.144C155.753 142.45 155.909 141.856 156.924 140.045C156.948 140.107 156.992 140.164 157.061 140.208C158.403 141.062 159.94 141.465 160.965 140.257C161.679 140.605 164.988 137.507 165.431 133.527C165.683 131.263 164.464 129.157 162.839 127.52C168.814 120.339 170.687 110.677 169.097 101.554Z" fill="black"/>
<path d="M154.587 134.569C154.662 134.431 154.463 134.299 154.351 134.391C153.182 135.357 151.501 138.066 150.75 139.381C150.433 140.241 149.697 140.404 148.541 139.87C147.955 138.932 149.685 137.11 150.138 136.283C150.701 135.256 151.258 134.281 152.144 133.496C152.224 133.424 152.114 133.282 152.026 133.347C150.432 134.533 149.791 136.38 148.574 137.886C147.742 138.916 147.31 139.558 148.485 140.593C149.344 141.35 150.164 141.24 150.808 140.32C151.529 139.289 152.069 138.122 152.792 137.082C153.379 136.238 154.094 135.47 154.587 134.569Z" fill="black"/>
</g>
<path d="M63.792 198.344H68.272C69.872 198.344 70.672 197.576 70.672 196.04V194.056C70.672 192.52 69.8293 191.752 68.144 191.752H63.792C63.5573 191.752 63.44 191.859 63.44 192.072V198.024C63.44 198.237 63.5573 198.344 63.792 198.344ZM63.792 189.192H67.952C69.5733 189.192 70.384 188.413 70.384 186.856V185.384C70.384 183.848 69.5947 183.08 68.016 183.08H63.792C63.5573 183.08 63.44 183.187 63.44 183.4V188.872C63.44 189.085 63.5573 189.192 63.792 189.192ZM60.336 200.456V180.968C60.336 180.605 60.5173 180.424 60.88 180.424H68.464C70.0427 180.424 71.2693 180.851 72.144 181.704C73.0187 182.557 73.456 183.763 73.456 185.32V186.888C73.456 188.744 72.5813 189.939 70.832 190.472C71.664 190.579 72.3467 190.941 72.88 191.56C73.4347 192.179 73.712 193.011 73.712 194.056V196.104C73.712 197.661 73.2747 198.867 72.4 199.72C71.5253 200.573 70.3093 201 68.752 201H60.88C60.5173 201 60.336 200.819 60.336 200.456ZM77.8323 181.96V179.048C77.8323 178.707 78.0029 178.536 78.3443 178.536H80.4243C80.7656 178.536 80.9363 178.707 80.9363 179.048V181.96C80.9363 182.323 80.7656 182.504 80.4243 182.504H78.3443C78.0029 182.504 77.8323 182.323 77.8323 181.96ZM77.8323 200.456V185.224C77.8323 184.861 78.0029 184.68 78.3443 184.68H80.3923C80.7549 184.68 80.9363 184.861 80.9363 185.224V200.456C80.9363 200.669 80.8936 200.819 80.8083 200.904C80.7443 200.968 80.6163 201 80.4243 201H78.3763C78.0136 201 77.8323 200.819 77.8323 200.456ZM92.597 201H89.781C88.2023 201 86.9757 200.563 86.101 199.688C85.2477 198.813 84.821 197.597 84.821 196.04V189.64C84.821 188.061 85.2477 186.845 86.101 185.992C86.9757 185.117 88.2023 184.68 89.781 184.68H92.597C94.1543 184.68 95.3703 185.117 96.245 185.992C97.141 186.845 97.589 188.061 97.589 189.64V196.04C97.589 197.597 97.141 198.813 96.245 199.688C95.3703 200.563 94.1543 201 92.597 201ZM90.229 198.28H92.181C93.717 198.28 94.485 197.501 94.485 195.944V189.736C94.485 188.179 93.717 187.4 92.181 187.4H90.229C89.4183 187.4 88.8317 187.592 88.469 187.976C88.1063 188.339 87.925 188.925 87.925 189.736V195.944C87.925 196.755 88.1063 197.352 88.469 197.736C88.8317 198.099 89.4183 198.28 90.229 198.28ZM119.995 201H109.755C109.392 201 109.211 200.819 109.211 200.456V180.968C109.211 180.605 109.392 180.424 109.755 180.424H119.995C120.336 180.424 120.507 180.605 120.507 180.968V182.6C120.507 182.963 120.336 183.144 119.995 183.144H112.699C112.443 183.144 112.315 183.251 112.315 183.464V188.872C112.315 189.085 112.443 189.192 112.699 189.192H118.875C119.259 189.192 119.451 189.373 119.451 189.736V191.368C119.451 191.731 119.259 191.912 118.875 191.912H112.699C112.443 191.912 112.315 192.019 112.315 192.232V197.928C112.315 198.163 112.443 198.28 112.699 198.28H119.995C120.336 198.28 120.507 198.461 120.507 198.824V200.456C120.507 200.819 120.336 201 119.995 201ZM126.826 201H124.81C124.447 201 124.266 200.819 124.266 200.456V185.224C124.266 184.861 124.447 184.68 124.81 184.68H126.826C127.189 184.68 127.37 184.861 127.37 185.224V186.376H127.498C128.01 185.245 129.087 184.68 130.73 184.68H132.138C133.695 184.68 134.89 185.107 135.722 185.96C136.554 186.813 136.97 188.04 136.97 189.64V200.456C136.97 200.819 136.778 201 136.394 201H134.378C134.015 201 133.834 200.819 133.834 200.456V189.768C133.834 188.189 133.055 187.4 131.498 187.4H129.994C128.245 187.4 127.37 188.307 127.37 190.12V200.456C127.37 200.819 127.189 201 126.826 201ZM152.349 201H145.437C143.859 201 142.632 200.563 141.757 199.688C140.904 198.813 140.477 197.597 140.477 196.04V189.64C140.477 188.061 140.904 186.845 141.757 185.992C142.632 185.117 143.859 184.68 145.437 184.68H148.061C149.64 184.68 150.867 185.117 151.741 185.992C152.616 186.845 153.053 188.061 153.053 189.64V193.704C153.053 194.088 152.861 194.28 152.477 194.28H143.901C143.667 194.28 143.549 194.387 143.549 194.6V195.976C143.549 197.533 144.328 198.312 145.885 198.312H152.349C152.733 198.312 152.925 198.504 152.925 198.888V200.488C152.925 200.829 152.733 201 152.349 201ZM143.901 192.104H149.629C149.843 192.104 149.949 191.997 149.949 191.784V189.736C149.949 188.925 149.768 188.339 149.405 187.976C149.043 187.592 148.456 187.4 147.645 187.4H145.885C145.075 187.4 144.488 187.592 144.125 187.976C143.763 188.339 143.581 188.925 143.581 189.736V191.784C143.581 191.997 143.688 192.104 143.901 192.104ZM159.139 201H157.123C156.76 201 156.579 200.819 156.579 200.456V185.224C156.579 184.861 156.76 184.68 157.123 184.68H159.139C159.501 184.68 159.683 184.861 159.683 185.224V186.44H159.811C160.024 185.907 160.429 185.48 161.027 185.16C161.645 184.84 162.328 184.68 163.075 184.68H164.259C164.621 184.68 164.803 184.861 164.803 185.224V186.888C164.803 187.293 164.621 187.464 164.259 187.4H162.339C160.568 187.4 159.683 188.371 159.683 190.312V200.456C159.683 200.819 159.501 201 159.139 201ZM173.249 200.2H171.809C170.273 200.2 169.089 199.773 168.257 198.92C167.447 198.045 167.041 196.819 167.041 195.24V189.64C167.041 188.061 167.479 186.845 168.353 185.992C169.228 185.117 170.444 184.68 172.001 184.68H179.169C179.553 184.68 179.745 184.861 179.745 185.224V201.064C179.745 202.621 179.297 203.827 178.401 204.68C177.527 205.555 176.311 205.992 174.753 205.992H168.737C168.375 205.992 168.193 205.821 168.193 205.48V203.816C168.193 203.453 168.375 203.272 168.737 203.272H174.273C175.831 203.272 176.609 202.483 176.609 200.904V198.472H176.481C175.948 199.624 174.871 200.2 173.249 200.2ZM176.609 194.76V187.72C176.609 187.507 176.492 187.4 176.257 187.4H172.449C170.935 187.4 170.177 188.189 170.177 189.768V195.08C170.177 196.659 170.935 197.448 172.449 197.448H173.985C175.735 197.448 176.609 196.552 176.609 194.76ZM185.655 206.184H183.959C183.596 206.184 183.415 206.003 183.415 205.64V204.008C183.415 203.624 183.596 203.432 183.959 203.432H184.695C185.996 203.432 186.892 203.176 187.383 202.664C187.895 202.152 188.321 201.309 188.663 200.136H187.383C187.063 200.136 186.839 199.955 186.711 199.592L182.455 185.224C182.369 184.861 182.508 184.68 182.871 184.68H185.015C185.356 184.68 185.569 184.861 185.655 185.224L189.143 197.768H189.271L192.759 185.224C192.823 184.861 193.036 184.68 193.399 184.68H195.447C195.852 184.68 196.023 184.872 195.959 185.256L191.575 200.648C191.084 202.44 190.391 203.805 189.495 204.744C188.599 205.704 187.319 206.184 185.655 206.184Z" fill="#011202"/>
</g>
<defs>
<filter id="filter0_b_1_282" x="-54" y="-54" width="363" height="380" filterUnits="userSpaceOnUse" color-interpolation-filters="sRGB">
<feFlood flood-opacity="0" result="BackgroundImageFix"/>
<feGaussianBlur in="BackgroundImageFix" stdDeviation="27"/>
<feComposite in2="SourceAlpha" operator="in" result="effect1_backgroundBlur_1_282"/>
<feBlend mode="normal" in="SourceGraphic" in2="effect1_backgroundBlur_1_282" result="shape"/>
</filter>
<linearGradient id="paint0_linear_1_282" x1="127.5" y1="0" x2="127.5" y2="272" gradientUnits="userSpaceOnUse">
<stop stop-color="white"/>
<stop offset="1" stop-color="white" stop-opacity="0"/>
</linearGradient>
<clipPath id="clip0_1_282">
<rect width="88" height="88" fill="white" transform="translate(83.5 64)"/>
</clipPath>
</defs>
</svg>
